<?xml version="1.0" encoding="iso-8859-1"?>
<!-- Uploaded to: SVG Repo, www.svgrepo.com, Generator: SVG Repo Mixer Tools -->
<svg height="800px" width="800px" version="1.1" id="Capa_1" xmlns="http://www.w3.org/2000/svg" xmlns:xlink="http://www.w3.org/1999/xlink" 
	 viewBox="0 0 54.086 54.086" xml:space="preserve">
<g>
	<path style="fill:#010002;" d="M46.64,53.243l-0.147-0.231c-3.437-2.945-1.625-5.446-1.625-5.446
		C47.495,48.813,46.639,53.243,46.64,53.243z M12.274,21.437c0,0-2.355-0.685-2.934,1.728C9.34,23.165,11,23.791,12.274,21.437z
		 M17.498,30.245c0,0-1.156,1.414,0.723,3.43C18.221,33.675,19.662,31.601,17.498,30.245z M8.915,53.345
		c0,0,2.135,0.805,3.773-2.222C12.688,51.123,9.659,50.243,8.915,53.345z M9.207,46.428c0,0,0.202,1.27,2.142,1.228
		C11.349,47.656,10.935,45.926,9.207,46.428z M11.842,45.604c0,0-0.897,0.509-0.319,1.954C11.523,47.558,12.705,46.76,11.842,45.604
		z M14.885,17.377c0,0-0.415-1.729-2.142-1.228C12.743,16.149,12.945,17.42,14.885,17.377z M15.377,15.326
		c0,0-0.897,0.509-0.318,1.954C15.059,17.279,16.241,16.481,15.377,15.326z M2.636,32.516c0,0,2.496,0.893,4.412-2.464
		C7.048,30.052,3.506,29.075,2.636,32.516z M26.052,34.279c0,0-1.652-0.48-2.058,1.212C23.994,35.491,25.158,35.93,26.052,34.279z
		 M7.05,29.659c0.001,0-0.224-2.797-3.193-2.448C3.857,27.211,3.853,29.24,7.05,29.659z M40.919,38.105c0,0-0.003,1.95,2.911,2.352
		C43.83,40.457,43.625,37.769,40.919,38.105z M30.778,8.933c0,0,0.926-2.219-1.36-3.048C29.418,5.885,28.625,7.433,30.778,8.933z
		 M39.146,29.104c0,0-1.342,1.828,1.116,4.207C40.262,33.311,41.916,30.647,39.146,29.104z M48.021,41.013
		c0,0-0.848,1.655,1.455,3.26C49.476,44.273,50.466,41.9,48.021,41.013z M48.135,40.794c-0.001,0,1.088,1.34,3.314-0.014
		C51.449,40.78,49.805,39.049,48.135,40.794z M41.566,13.13c0,0,0.737-1.199-0.904-2.546C40.662,10.584,39.774,12.316,41.566,13.13z
		 M41.467,13.289c0-0.001-0.742-1.076-2.501-0.187C38.966,13.102,40.104,14.506,41.467,13.289z M42.57,25.555
		c0,0,1.405-2.995-1.688-4.27C40.882,21.285,39.701,23.365,42.57,25.555z M45.3,21.176c0,0-2.017-2.316-4.26-0.167
		C41.04,21.009,42.364,22.792,45.3,21.176z M29.373,1.545c0,0-3.415-0.59-3.847,2.889C25.526,4.434,27.956,5.051,29.373,1.545z
		 M25.204,4.351c0,0,1.435-1.832-1.012-4.351C24.192,0,22.411,2.68,25.204,4.351z M19.415,21.585c0,0-3.736,1.087-2.458,4.81
		C16.958,26.395,19.712,25.82,19.415,21.585z M24.619,41.656c0,0,1.451-1.287-0.177-3.719
		C24.441,37.937,22.579,39.867,24.619,41.656z M29.33,17.819c0,0,0.841-2.047-2.047-3.721C27.284,14.098,26.343,17.01,29.33,17.819z
		 M47.721,37.2c0,0,0.928-0.983-0.351-2.571C47.37,34.629,46.195,36.083,47.721,37.2z M22.02,53.815
		c0.112,0.091,0.248,0.179,0.373,0.268h-2.861c-0.042-0.05-0.072-0.114-0.073-0.195h-0.003c0-0.369-0.201-0.65-0.427-0.917
		c-0.213-0.165-0.43-0.328-0.648-0.474c-0.274-0.183-0.261-0.507-0.11-0.712c-0.173-0.186-0.348-0.378-0.497-0.584
		c-0.011-0.001-0.023-0.003-0.034-0.005v0.002c-0.012-0.002-0.022-0.005-0.033-0.007c-0.195-0.033-0.378-0.081-0.574-0.14
		c-0.305-0.091-0.657-0.031-0.935-0.122c-0.192-0.063-0.396-0.123-0.589-0.201c-0.042,0.025-0.087,0.043-0.135,0.054l-0.006,0.005
		c-0.24,0.228-0.486,0.424-0.777,0.582c-0.156,0.085-0.405,0.056-0.502,0.142c0.006,0.398-0.405,0.644-0.563,0.977
		c-0.015,0.031-0.062,0.009-0.054-0.023c0.053-0.212,0.068-0.412,0.183-0.605c0.056-0.095,0.103-0.188,0.159-0.276
		c-0.023-0.006-0.047-0.013-0.069-0.026c-0.506-0.295-1.216-0.541-1.789-0.584c-0.057-0.004-0.058-0.09,0-0.089
		c0.378,0.008,0.877,0.194,1.236,0.116c0.247-0.054,0.43-0.07,0.633-0.01c0.237-0.196,0.513-0.319,0.739-0.535
		c0.025-0.024,0.049-0.049,0.073-0.074c-0.014-0.008-0.028-0.017-0.04-0.026c-0.047-0.034-0.085-0.075-0.115-0.12
		c-0.257-0.03-0.415-0.304-0.565-0.494c-0.069-0.088-0.098-0.211-0.077-0.318c-0.011-0.047-0.017-0.095-0.017-0.145
		c-0.11-0.077-0.213-0.162-0.318-0.243c-0.043,0.044-0.105,0.065-0.187,0.035c-0.133-0.048-0.255-0.111-0.367-0.188
		c-0.058-0.024-0.116-0.049-0.173-0.075c-0.13,0.002-0.258,0.008-0.358-0.006c-0.098-0.013-0.139-0.079-0.141-0.152
		c-0.131-0.046-0.259-0.097-0.384-0.157c-0.102,0.012-0.195,0.047-0.324,0.047c-0.269,0-0.458-0.15-0.749-0.099
		c-0.06,0.011-0.111-0.041-0.114-0.092c-0.228-0.024-0.456-0.058-0.682-0.078c-0.057-0.005-0.057-0.084,0-0.089
		c0.358-0.031,0.72-0.1,1.079-0.106c0.19-0.003,0.418-0.047,0.61-0.002c0.084-0.04,0.171-0.074,0.272-0.064
		c0.399,0.04,0.748,0.243,1.12,0.378c0.046,0,0.091,0,0.137,0.001c0.098,0.001,0.191,0.062,0.28,0.126
		c0.015,0.009,0.028,0.019,0.04,0.03c0.046,0.034,0.09,0.067,0.133,0.091c0.189,0.107,0.504,0.125,0.658,0.28l0.003,0.004
		c0.04-0.002,0.083,0.004,0.13,0.024c0.219,0.091,0.425,0.179,0.624,0.3c0.193-0.007,0.39-0.004,0.589,0.008
		c0.018-0.004,0.037-0.007,0.057-0.009l-0.003-0.028c-0.022-0.165,0.038-0.298,0.15-0.366c-0.201-0.123-0.401-0.245-0.612-0.349
		c-0.021-0.01-0.006-0.041,0.015-0.036c0.284,0.063,0.541,0.185,0.782,0.338c0.023,0,0.047,0,0.073,0.004
		c0.138,0.02,0.212-0.143,0.246-0.378c-0.005-0.025-0.011-0.048-0.013-0.074c-0.007-0.122-0.016-0.244-0.026-0.365
		c-0.005-0.017-0.01-0.033-0.013-0.051c-0.113-0.692-0.184-1.386-0.423-2.049c-0.054-0.15,0.015-0.349,0.079-0.494
		c-0.03-0.018-0.066-0.047-0.11-0.088c-0.174-0.165-0.153-0.435,0-0.602l0.012-0.02c-0.059-0.249-0.11-0.499-0.15-0.75
		c-0.102-0.225-0.219-0.429-0.272-0.506c-0.317-0.457-0.443-0.549-0.402-1.171c0.02-0.32,0.14-0.619,0.202-0.93
		c0.018-0.09,0.022-0.182,0.022-0.274c-0.015-0.017-0.031-0.032-0.045-0.052c-0.367-0.511-0.422-1.277-0.754-1.816
		c-0.273-0.178-0.536-0.382-0.792-0.523c-0.288-0.158-0.578-0.337-0.833-0.553c-0.153-0.035-0.299-0.041-0.427-0.003
		c-0.212,0.063-0.392-0.045-0.514-0.209c-0.255-0.342-0.723-0.511-1.162-0.862c-0.085-0.069-0.121-0.199-0.108-0.315
		c-0.373-0.142-0.702-0.364-1.03-0.644c-0.457-0.39-1.219-0.388-1.774-0.547c-0.374-0.108-0.72-0.265-1.077-0.419
		c-0.021-0.009-0.006-0.042,0.015-0.036c0.829,0.228,2.019,0.53,2.88,0.468c0.568-0.041,1.013,0.582,1.619,0.602
		c0.261,0.009,0.481,0.343,0.316,0.564c0.132,0.078,0.276,0.133,0.455,0.133c0.069,0,0.137,0.019,0.198,0.05
		c0.02-0.003,0.039-0.004,0.059-0.003c0.029,0.002,0.234-0.003,0.137,0.02c0.019-0.004,0.037-0.01,0.056-0.016l0.018-0.01
		c-0.03-0.233-0.094-0.444-0.219-0.655c-0.098-0.165-0.084-0.424,0.071-0.553c0.048-0.041,0.089-0.083,0.127-0.126
		c-0.06-0.105-0.103-0.212-0.103-0.324c0-0.209,0.002-0.452,0.031-0.691c-0.203-0.329-0.234-0.767-0.145-1.176
		c-0.593-0.428-1.204-1.027-1.139-1.745c-0.52-0.294-0.931-0.757-1.406-1.106c-0.458-0.015-0.887-0.15-1.34-0.224
		c-0.52-0.085-0.984-0.194-1.411-0.515c-0.09-0.068-0.014-0.209,0.09-0.154c0.431,0.225,0.842,0.268,1.321,0.193
		c0.056-0.008,0.111-0.023,0.166-0.04c-0.293-1.121-0.378-2.336-0.804-3.41c-0.018-0.047,0.059-0.078,0.082-0.034
		c0.264,0.5,0.501,1.021,0.692,1.554c0.2,0.56,0.329,1.333,0.971,1.517c0.915,0.262,1.38,1.255,2.278,1.54
		c0.212,0.067,0.402,0.315,0.311,0.548c-0.041,0.106-0.047,0.208-0.029,0.305c0.014-0.003,0.028-0.005,0.043-0.005
		c0.033,0,0.065,0.003,0.097,0.007c0.115-0.112,0.322-0.123,0.457-0.007c0.061-0.002,0.116-0.001,0.189,0.017
		c0.049,0.012,0.094,0.029,0.14,0.046c0.611-0.785,1.441-1.545,1.567-2.278c0.115-0.668,0.204-1.295,0.433-1.927
		c0.102-0.281-0.195-0.614-0.167-0.903c0.041-0.433,0.055-0.864-0.001-1.295c-0.004-0.025,0.011-0.04,0.03-0.049
		c-0.107-0.425-0.345-0.669-0.797-0.931c-0.585-0.339-0.9-1.184-0.846-1.846c-0.003-0.011-0.006-0.021-0.008-0.032
		c-0.155-0.135-0.186-0.368-0.18-0.59c-0.061-0.077-0.12-0.158-0.174-0.242c-0.184-0.061-0.349-0.175-0.484-0.332
		c-0.245-0.286-0.424-0.713-0.759-0.892c-0.035-0.018-0.01-0.074,0.027-0.063c0.236,0.071,0.504,0.202,0.681,0.377
		c0.239,0.237,0.496,0.581,0.875,0.526h0.018c0.13-0.614,0.498-1.214,0.835-1.766c0.004-0.018,0.007-0.032,0.009-0.04
		c0.101-0.468,0.565-0.932,0.416-1.423c-0.185-0.61,0.608-0.582,0.928-0.787c0.04-0.026,0.075,0.029,0.048,0.062
		c-0.528,0.642-0.976,1.533-1.193,2.433c-0.009,0.052-0.022,0.104-0.034,0.156c-0.079,0.375-0.118,0.749-0.102,1.106
		c0.004,0.095-0.08,0.178-0.172,0.187c-0.015,0.05-0.03,0.1-0.045,0.15c0.013,0.099,0.026,0.199,0.045,0.297
		c0.026,0.131-0.082,0.219-0.199,0.188c0.004,0.035,0.009,0.068,0.014,0.102c0.087,0.105,0.15,0.232,0.199,0.414
		c0.019,0.07,0.008,0.153-0.025,0.225c0.029,0.04,0.058,0.088,0.092,0.156c0.077,0.153,0.035,0.298-0.056,0.397
		c0.193,0.293,0.417,0.561,0.658,0.676c0.318,0.152,0.506,0.267,0.663,0.584c0.261,0.527,0.146,1.37,0.108,2.043
		c0.012,0.043,0.026,0.085,0.037,0.127c0.048,0.189,0.197,0.407,0.267,0.62c0.139-0.059,0.287-0.098,0.431-0.137
		c0.16-0.042,0.282-0.196,0.399-0.307c0.037-0.035,0.091,0.019,0.056,0.056c-0.076,0.079-0.151,0.159-0.23,0.234
		c-0.069,0.065-0.109,0.145-0.168,0.218c-0.125,0.154-0.224,0.272-0.422,0.332c-0.022,0.007-0.043,0.007-0.063,0.006
		c-0.177,0.686-0.134,1.434-0.33,2.115c-0.206,0.715-0.613,1.37-0.954,2.028c-0.23,0.444-0.564,0.857-0.712,1.341
		c-0.11,0.359-0.152,0.606-0.363,0.884c0.038,0.16,0.039,0.334,0.023,0.511c0.002,0.05,0.002,0.101-0.002,0.154
		c-0.003,0.03-0.01,0.058-0.02,0.085c0.218,0.072,0.391,0.325,0.303,0.551c-0.026,0.067-0.052,0.129-0.077,0.189
		c0.101,0.177,0.192,0.362,0.293,0.562c0.251,0.495,0.695,1.03,1.046,1.466c0.5,0.621,1.096,1.101,1.65,1.648
		c0.036-0.087,0.072-0.174,0.106-0.259c0.291-0.726,0.599-1.468,1.153-2.028c-0.09-0.324-0.096-0.651,0.011-0.987
		c0.074-0.232,0.173-0.463,0.232-0.698c0.093-0.373,0.281-0.425-0.037-0.504c-0.23-0.057-0.307-0.428-0.07-0.534
		c0.96-0.431,2.014-0.709,2.814-1.434c0.146-0.132,0.48-0.627,0.68-0.627c0.471,0,0.363-0.747,0.351-1.033
		c-0.002-0.041,0.056-0.045,0.068-0.009c0.139,0.409,0.126,0.771,0.065,1.195c-0.007,0.043-0.058,0.077-0.099,0.075
		c-0.428-0.021-0.762,0.568-1.046,0.792c-0.215,0.17-0.431,0.338-0.667,0.48c-0.443,0.266-0.892,0.523-1.344,0.774
		c0.027,0.049,0.046,0.104,0.054,0.168c0.103,0.816-0.448,1.512-0.258,2.323c0.012-0.006,0.023-0.013,0.036-0.019
		c0.015-0.008,0.03,0.01,0.018,0.023c-0.016,0.018-0.03,0.035-0.045,0.053c0.02,0.113-0.007,0.245-0.096,0.321
		c-0.057,0.049-0.11,0.099-0.162,0.151c-0.139,0.41-0.154,0.865-0.383,1.259c-0.288,0.496-0.539,1.007-0.779,1.528l-0.013,0.029
		c0.038,0.315,0.053,0.615,0.028,0.923c0.087,0.18,0.08,0.411-0.092,0.628l-0.013,0.015c-0.027,0.12-0.056,0.243-0.09,0.368
		c0.412,0.932,0.548,1.921,0.572,2.953c0.437,0.525,0.651,1.425,0.902,1.967c0.415,0.896,0.471,1.879,0.755,2.815
		c0.096,0.053,0.17,0.139,0.202,0.254c0.123,0.445,0.365,0.833,0.58,1.237c0.027,0.005,0.053,0.012,0.078,0.022
		c0.009-0.067,0.094-0.105,0.159-0.055c0.648,0.506,0.798,1.311,1.231,1.957c0.129,0.139,0.254,0.284,0.376,0.433
		C21.985,53.783,22.001,53.8,22.02,53.815z M12.491,36.951l-0.007-0.002L12.491,36.951L12.491,36.951z M47.768,38.017
		c-0.29,0.202-0.113,0.724-0.108,1.095c0.002,0.134-0.127,0.16-0.214,0.119c-0.035,0.022-0.082,0.026-0.124,0.015
		c0.146,0.144,0.189,0.343,0.125,0.598c0.07,0.309,0.152,0.612,0.24,0.917c0.045,0.155-0.081,0.336-0.248,0.326
		c-0.073-0.004-0.164,0.002-0.257,0.009c0.003,0.014,0.007,0.027,0.01,0.041c0.048,0.206-0.094,0.38-0.3,0.394
		c-0.111,0.007-0.208,0.012-0.303,0.011c-0.046,0.145-0.168,0.24-0.321,0.244c-0.451,0.012-0.672,0.331-1.036,0.372
		c-0.023,0.23-0.087,0.423-0.174,0.676c-0.021,0.061-0.071,0.131-0.141,0.141c-0.382,0.121-0.609,0.363-0.684,0.727
		c-0.065,0.173-0.334,0.259-0.432,0.059c-0.022,0.015-0.048,0.033-0.081,0.056c-0.082,0.037-0.167,0.067-0.254,0.089
		c-0.149,0.049-0.33,0.028-0.482,0.02c-0.342-0.018-0.666-0.145-0.997-0.212c0.194,0.088,0.359,0.205,0.467,0.389
		c0.189,0.099,0.385,0.182,0.552,0.257c0.132,0.06,0.2,0.251,0.156,0.384c-0.319,0.975,1.104,1.452,1.631,2.178
		c0.021,0.001,0.044,0.007,0.066,0.022c0.634,0.423,1.228,0.9,1.881,1.291l-0.009,0.016c-0.573-0.373-1.19-0.661-1.807-0.95
		c-0.057,0.113-0.244,0.109-0.292-0.031c-0.239-0.691-1.179-1.009-1.615-1.584c-0.26-0.343-0.565-0.49-0.565-0.841
		c-0.346-0.175-0.685-0.387-0.942-0.667c-0.266-0.086-0.603-0.158-0.744-0.192c-0.667-0.158-1.3-0.365-1.99-0.431
		c-0.272-0.026-0.541-0.037-0.806-0.072c-0.081,0.18-0.255,0.313-0.474,0.24c-0.417-0.139-0.707,0.559-0.89,0.855
		c-0.156,0.253-0.549,0.576-0.484,0.883c0.069,0.327-0.227,0.686-0.55,0.618c-0.048,0.076-0.098,0.147-0.147,0.214
		c-0.079,0.107-0.159,0.214-0.251,0.305c-0.027,0.145-0.073,0.295-0.134,0.446c-0.052,0.281-0.103,0.562-0.176,0.836
		c-0.038,0.195-0.177,0.28-0.326,0.283c-0.039,0.087-0.081,0.168-0.129,0.243c-0.137,0.495-0.321,0.967-0.788,1.055
		c-0.174,0.223-0.373,0.424-0.603,0.564c-0.004,0.055-0.008,0.11-0.013,0.169c-0.015,0.169-0.125,0.313-0.269,0.369
		c0.004,0.01,0.008,0.02,0.01,0.03c0.07,0.347-0.012,0.763-0.299,1.003c-0.149,0.125-0.317,0.2-0.485,0.206
		c-0.005,0.064-0.025,0.126-0.064,0.181c-0.072,0.101-0.14,0.191-0.214,0.272c-0.032,0.053-0.075,0.096-0.128,0.126
		c-0.067,0.058-0.141,0.109-0.227,0.157c-0.049,0.255-0.299,0.394-0.532,0.343c-0.133,0.142-0.272,0.276-0.446,0.369l-0.015,0.006
		c0.072,0.165,0.094,0.343,0.053,0.519c0.051,0.097,0.053,0.209,0.004,0.311h-4.176c0.048-0.113,0.133-0.212,0.235-0.286
		c0.122-0.088,0.237-0.16,0.358-0.208c0.039-0.558-0.028-1.149,0.078-1.69l-0.028-0.015c-0.161-0.074-0.25-0.273-0.253-0.44
		c-0.011-0.603-0.033-1.192-0.144-1.786c-0.034-0.18-0.016-0.405,0.14-0.531c0.037-0.03,0.07-0.062,0.105-0.093
		c-0.005-0.048-0.004-0.098,0.009-0.147c0.039-0.149,0.066-0.304,0.086-0.463c-0.169-0.279-0.3-0.579-0.375-0.887
		c-0.039-0.16,0.051-0.329,0.202-0.381c-0.001-0.014-0.002-0.027-0.003-0.041c-0.067-0.054-0.122-0.132-0.134-0.204
		c-0.038-0.221-0.107-0.418-0.186-0.628c-0.09-0.238,0.058-0.433,0.255-0.512c-0.067-0.272-0.141-0.538-0.219-0.796
		c-0.411-0.468-0.731-1.015-0.819-1.568c-0.398-0.107-0.692-0.337-0.871-0.688c-0.054-0.042-0.108-0.085-0.164-0.128
		c-0.114-0.088-0.222-0.164-0.333-0.232c-0.216-0.072-0.433-0.144-0.649-0.216c-0.018-0.006-0.01-0.035,0.008-0.029
		c0.163,0.054,0.326,0.109,0.489,0.163c-0.109-0.054-0.224-0.1-0.356-0.13c-0.225-0.051-0.39-0.115-0.575-0.253
		c-0.025-0.019-0.004-0.057,0.025-0.043c0.5,0.235,1.068-0.008,1.546,0.229c0.41,0.203,0.769,0.453,1.106,0.742
		c0.048,0.005,0.096,0.013,0.143,0.026c0.034,0.01,0.067,0.025,0.098,0.045c0.013-0.042,0.036-0.081,0.062-0.12
		c0.002-0.046,0-0.092-0.014-0.142c-0.091-0.331,0.131-0.53,0.337-0.75c0.244-0.259,0.538-0.506,0.779-0.782
		c0.008-0.026,0.015-0.052,0.024-0.078c0.025-0.07,0.065-0.128,0.113-0.175c0.303-0.625,0.748-1.185,0.861-1.899
		c0.048-0.301,0.364-0.411,0.628-0.361c0.108-0.125,0.203-0.253,0.28-0.401c-0.021-0.06-0.039-0.122-0.055-0.184
		c-0.248-0.617-0.254-1.393-0.39-2.068c-0.231-0.157-0.4-0.387-0.52-0.646c-0.044-0.018-0.089-0.036-0.135-0.05
		c-0.153-0.047-0.289-0.098-0.408-0.178c-0.051,0.042-0.143,0.034-0.172-0.029c-0.025-0.054-0.018-0.094-0.033-0.143l-0.007-0.001
		c-0.21-0.029-0.423-0.232-0.617-0.308c-0.416-0.162-0.704-0.507-0.912-0.886c-0.013-0.023,0.019-0.04,0.034-0.02
		c0.204,0.281,0.869,1.017,1.29,0.767c0.178-0.105,0.421-0.092,0.626-0.149c-0.103-0.241-0.166-0.502-0.21-0.771
		c-0.028-0.062-0.057-0.123-0.086-0.186c-0.096-0.204-0.168-0.418-0.218-0.638l-0.025-0.021c-0.211-0.247-0.264-0.465-0.288-0.726
		c-0.14-0.083-0.223-0.266-0.177-0.425c0.072-0.251,0.037-0.505,0.052-0.76c-0.047-0.05-0.068-0.118-0.067-0.189
		c-0.906-0.469-1.775-1.245-2.236-2.15c-0.024-0.045,0.041-0.083,0.068-0.04c0.371,0.586,0.968,0.996,1.544,1.368
		c0.055,0.036,0.129,0.086,0.211,0.141c0.193-0.044,0.429-0.051,0.592,0.02c0.074-0.006,0.146-0.004,0.217,0.005
		c0.062-0.107,0.147-0.201,0.259-0.28c0.079-0.056,0.164-0.062,0.239-0.037c0.062-0.062,0.128-0.12,0.204-0.17l0.013-0.005
		c0.406-1.01,0.79-2.024,0.5-3.196c-0.015-0.062,0.079-0.088,0.096-0.026c0.198,0.714,0.214,1.435,0.042,2.159
		c-0.199,0.834-0.708,1.693-0.746,2.553c-0.018,0.401-0.075,0.819-0.039,1.225c0.109,0.32,0.193,0.669,0.296,1.004
		c0.03,0.025,0.049,0.062,0.042,0.113v0.02c0.008,0.024,0.016,0.047,0.024,0.07c0.011,0.014,0.024,0.028,0.041,0.045
		c0.011,0.012,0.024,0.024,0.036,0.035c0.005,0.001,0.014,0.003,0.028,0.009c0.072,0.02,0.135,0.071,0.182,0.128
		c0.08,0.097,0.111,0.22,0.043,0.335c-0.013,0.021-0.03,0.042-0.05,0.06c0.027,0.043,0.057,0.084,0.088,0.125
		c0.022,0.009,0.045,0.019,0.065,0.032c0.212-0.111,0.494-0.067,0.538,0.23c0.003,0.067,0.015,0.131,0.034,0.194
		c0.281-0.154,0.663,0.072,0.703,0.426c0.006,0.052,0.016,0.103,0.026,0.155c0.042-0.012,0.082-0.024,0.127-0.033
		c0.196-0.038,0.384,0.017,0.514,0.137l0.021-0.023c0.283-0.327,0.396-0.709,0.49-1.12c0.04-0.175,0.226-0.319,0.406-0.31
		c0.083,0.004,0.165-0.002,0.246-0.015c0.015-0.07,0.027-0.139,0.033-0.208c0.013-0.16,0.101-0.312,0.268-0.352
		c0.078-0.019,0.154-0.043,0.23-0.066c0.017-0.016,0.036-0.031,0.057-0.045c0.286-0.184,0.431-0.66,0.482-1.11
		c-0.299-0.43-0.545-0.894-0.947-1.24c-0.017-0.014-0.003-0.042,0.017-0.042l0.018,0.001c-0.13-0.082-0.232-0.195-0.283-0.348
		c-0.567,0.207-0.93-0.081-1.289-0.519c-0.01-0.012,0.004-0.034,0.018-0.023c0.34,0.261,0.726,0.461,1.146,0.308
		c0.022-0.026,0.054-0.043,0.098-0.042c0.04-0.001,0.082-0.021,0.12-0.031c0.08-0.022,0.146,0.016,0.192,0.078
		c0.008,0.01,0.018,0.017,0.026,0.026c-0.347-1.389-0.161-2.86-1.223-4.038c-0.022-0.024,0.007-0.068,0.036-0.047
		c1.161,0.846,1.227,2.2,1.559,3.497c0.062,0.241,0.1,0.606,0.266,0.814c0.024,0.019,0.044,0.039,0.059,0.061
		c0.039,0.033,0.081,0.062,0.132,0.079c0.11,0.036,0.259,0.071,0.412,0.113c0.121-0.035,0.257-0.023,0.387,0.05
		c0.032-0.019,0.065-0.035,0.101-0.047c0.121-0.056,0.264-0.085,0.396-0.049c0.053,0.015,0.095,0.037,0.128,0.064
		c0.241-0.558,0.687-0.962,1.105-1.382c0.021-0.047,0.04-0.094,0.059-0.142c-0.006-0.15-0.007-0.301,0.024-0.413
		c0.016-0.058,0.044-0.104,0.075-0.147c-0.03-0.225,0.001-0.43,0.113-0.659c-0.033-0.371,0.008-0.781,0.209-1.087
		c-0.17-0.239-0.354-0.456-0.475-0.726c-0.258-0.575,0.111-1.273-0.58-1.67c-0.251-0.144-0.316-0.406-0.274-0.673
		c-0.022-0.048-0.044-0.095-0.066-0.143c-0.169-0.156-0.202-0.358-0.151-0.545c-0.064-0.102-0.117-0.205-0.153-0.311
		c-0.372-0.186-0.601-0.511-0.578-0.95c-0.028-0.06-0.046-0.125-0.055-0.195c-0.01-0.005-0.02-0.012-0.03-0.017
		c-0.305-0.095-0.523-0.444-0.42-0.752c-0.213-0.072-0.359-0.303-0.37-0.529c-0.054-0.065-0.092-0.141-0.113-0.222
		c-0.083-0.053-0.151-0.135-0.188-0.252c-0.008-0.028-0.016-0.053-0.024-0.08c-0.584-0.375-1.224-0.653-1.885-0.943
		c-0.197-0.086-1.117-0.396-0.877-0.64c-0.107,0.11-0.48,0.107-0.62,0.134c-0.401,0.076-0.75,0.16-1.132,0.326
		c-0.011,0.005-0.021-0.011-0.01-0.017c0.262-0.141,1.329-0.698,1.561-0.461c-0.108-0.111,0-0.3,0.151-0.259
		c0.742,0.2,1.567,0.611,2.27,0.981c-0.058-0.117-0.104-0.245-0.156-0.345c-0.039-0.074,0.009-0.137,0.069-0.15l-0.012-0.015
		c-0.361-0.408-0.396-0.966-0.917-1.241c-0.231-0.122-0.256-0.397-0.16-0.61c0.01-0.026,0.023-0.051,0.034-0.076
		c-0.053-0.064-0.095-0.14-0.133-0.231c-0.346-0.155-0.58-0.405-0.622-0.738c-0.036-0.05-0.071-0.1-0.105-0.148
		c-0.33-0.461-0.527-0.926-0.575-1.466c-0.415-0.216-0.51-0.632-0.813-0.876c-0.5-0.402-1.001-0.818-1.371-1.347l-0.002-0.006
		c-0.116-0.088-0.218-0.195-0.304-0.312c-0.304-0.112-0.488-0.436-0.709-0.672c-0.279-0.297-0.575-0.578-0.842-0.886
		c-0.152-0.175-0.281-0.705-0.552-0.722c-0.573-0.036-1.071-0.225-1.649-0.078c-0.05,0.013-0.07-0.062-0.021-0.076
		C23.411,8.7,24.019,8.9,24.665,8.929c0.02,0.001,0.04,0.011,0.05,0.029c0.165,0.319,0.694,0.618,1.192,0.939
		c0.27-0.681-0.352-1.559-0.206-2.29c0.034-0.167-0.221-0.608-0.268-0.769c-0.134-0.455-0.334-0.806-0.583-1.205
		c-0.052-0.085-0.254-0.573-0.305-0.586c-0.257-0.066-0.451-0.193-0.664-0.351c-0.523-0.388-0.9-0.943-1.399-1.347l0,0
		c-0.014-0.012,0.004-0.03,0.02-0.017c0.644,0.31,1.457,1.446,2.185,1.346c0.093-0.013,0.166,0.009,0.22,0.089
		c0.311,0.459,0.691,0.913,0.913,1.421c0.17,0.388,0.27,0.758,0.487,1.129c0.099,0.168-0.009,0.453,0.011,0.613
		c0.038,0.308,0.119,0.595,0.195,0.894c0.087,0.341,0.113,0.653,0.114,0.992c0.066,0.078,0.128,0.166,0.254,0.233
		c0.135,0.071,0.227,0.269,0.17,0.417c-0.17,0.44,0.32,0.73,0.658,0.687c0.205-0.026,0.369,0.19,0.373,0.373
		c0.001,0.037,0.002,0.075,0.003,0.112c0.381,0.184,0.737,0.444,1.055,0.711c0.077,0.065,0.153,0.197,0.229,0.351
		c0.061-0.004,0.123-0.011,0.182-0.019c0.012-0.022,0.027-0.042,0.048-0.059c0.059-0.047,0.118-0.084,0.177-0.117
		c0.308-0.284,0.573-0.646,0.699-1.054c-0.237-0.159-0.299-0.377-0.317-0.673c-0.028-0.468,0.045-0.725-0.368-1.043
		c-0.276-0.212-0.406-0.433-0.327-0.782c0.008-0.037,0.064-0.021,0.057,0.016c-0.136,0.707,0.59,0.702,0.931,1.082
		c0.189,0.211,0.299,0.464,0.336,0.73c0.058-0.019,0.122-0.024,0.192-0.006c0.018,0.005,0.034,0.01,0.05,0.014l0.001-0.001
		c0.069-0.415,0.037-0.809,0.068-1.253c0.009-0.137-0.016-0.372,0.102-0.488c-0.034,0.033,0.489-0.338,0.448-0.286
		c0.114-0.144,0.167-0.239,0.331-0.313c0.045-0.019,0.11,0.026,0.075,0.075c-0.217,0.303-0.358,0.386-0.377,0.722
		c-0.04,0.717,0.077,1.431-0.08,2.138c-0.044,0.199-0.295,0.313-0.476,0.225c-0.018,0.035-0.036,0.07-0.054,0.106
		c-0.02,0.047-0.042,0.094-0.065,0.141c-0.103,0.236-0.167,0.48-0.092,0.75c0.062,0.224-0.123,0.396-0.331,0.387l-0.004,0.023
		c0.05,0.095,0.049,0.214-0.014,0.304c-0.051,0.235-0.147,0.519-0.278,0.695c-0.008,0.011-0.018,0.02-0.029,0.029
		c-0.008,0.261-0.019,0.56,0.201,0.745c0.084,0.071,0.122,0.197,0.115,0.31c0.065,0.08,0.131,0.16,0.198,0.242
		c0.075,0.092,0.142,0.177,0.198,0.263c0.134,0.156,0.239,0.292,0.191,0.273c0.265,0.106,0.417,0.381,0.265,0.651
		c-0.013,0.022-0.024,0.044-0.036,0.065c0.407,0.383,0.532,0.925,0.966,1.341c0.196,0.189,0.318,0.377,0.405,0.574
		c0.051,0.03,0.101,0.062,0.146,0.098c0.232,0.183,0.355,0.374,0.517,0.593c0.044,0.029,0.088,0.061,0.13,0.097
		c0.098,0.085,0.152,0.208,0.166,0.337c0.077,0.152,0.141,0.31,0.224,0.459c0.054,0.063,0.098,0.132,0.132,0.205
		c0.179,0.256,0.389,0.462,0.618,0.688c0.638,0.63,0.988,1.578,1.236,2.445c0.35,0.126,0.535,0.408,0.63,0.747
		c0.295-0.279,0.652-0.53,0.949-0.53c0.175,0,0.171,0.175,0.284-0.046c0.057-0.114,0.101-0.261,0.192-0.353
		c0.197-0.197,0.48-0.364,0.727-0.501c0.009-0.031,0.017-0.061,0.023-0.093c0.02-0.108,0.139-0.234,0.25-0.25
		c0.201-0.028,0.371-0.157,0.516-0.335c0.165-0.286,0.301-0.591,0.43-0.866c0.055-0.118,0.107-0.256,0.16-0.4
		c0.018-0.056,0.035-0.109,0.05-0.156c0.095-0.294,0.17-0.588,0.238-0.883c-0.003-0.144-0.004-0.295,0.001-0.449
		c-0.142-0.306-0.274-0.617-0.425-0.919c-0.135-0.27-0.291-0.524-0.415-0.795c-0.098-0.009-0.178-0.049-0.237-0.138
		c-0.06-0.09-0.271-0.115-0.365-0.22c-0.015-0.017-0.022-0.04-0.025-0.064c-1.099-0.374-2.188-0.753-3.315-1.068
		c-0.031-0.009-0.018-0.056,0.013-0.048c1.141,0.277,2.44,0.477,3.548,0.97c0.075-0.01,0.148-0.011,0.225-0.008
		c0.01-0.022,0.018-0.045,0.029-0.068c0.046-0.096,0.136-0.137,0.229-0.138c0.101-0.105,0.219-0.2,0.315-0.295
		c0.227-0.227,0.377-0.549,0.412-0.871c0.002-0.019,0.03-0.02,0.03,0c0.005,0.34-0.16,0.639-0.204,0.97
		c-0.033,0.241-0.045,0.51-0.165,0.723c0.129,0.381,0.306,0.749,0.474,1.112c0.038-0.119,0.084-0.234,0.145-0.339
		c0.142-0.242,0.297-0.322,0.356-0.631c0.008-0.045,0.046-0.087,0.084-0.109c0.362-0.213,0.167-0.096,0.151-0.484
		c-0.013-0.315,0.301-0.581,0.515-0.753c0.462-0.372,0.226-1.097,0.329-1.608c-0.383-0.554-0.092-1.499,0.049-2.101
		c0.154-0.657,0.376-1.515,1.045-1.827c0.047-0.023,0.12,0.028,0.081,0.081c-0.517,0.693-0.859,1.285-0.814,2.188
		c0.017,0.344,0.145,0.757,0.142,1.133c0.02-0.006,0.039-0.011,0.06-0.015c1.025-0.204,2.05-0.331,3.081-0.492
		c0.068-0.011,0.098,0.085,0.029,0.105c-0.911,0.264-2.372,0.086-3.019,0.893c-0.3,0.375,0.175,1.138-0.086,1.584
		c-0.303,0.515-1.093,0.226-0.946,1.19c0.012,0.08-0.008,0.147-0.078,0.192c-0.283,0.182-0.464,0.74-0.425,1.074
		c0.037,0.321-0.135,0.633-0.304,0.924c-0.018,0.104-0.043,0.21-0.071,0.315l0.001,0.003c0.033,0.392-0.214,0.728-0.299,1.105
		c-0.07,0.308-0.156,0.605-0.301,0.887c-0.065,0.127-0.132,0.236-0.199,0.337c-0.108,0.266-0.235,0.514-0.394,0.699
		c-0.08,0.094-0.161,0.169-0.269,0.224c0.013,0.011,0.014,0.037-0.009,0.09c-0.16,0.362-0.41,0.67-0.7,0.94
		c-0.405,0.377-0.79,0.509-0.951,1.049c0.028,0.104,0.026,0.222-0.026,0.343c-0.045,0.104-0.091,0.204-0.14,0.301
		c-0.077,0.193-0.126,0.387-0.139,0.617c-0.008,0.139-0.065,0.251-0.149,0.333c0.055,0.115,0.07,0.253,0.019,0.407
		c-0.056,0.169-0.123,0.328-0.167,0.501c-0.022,0.087-0.065,0.159-0.121,0.22c0.029,0.1,0.044,0.2,0.044,0.301
		c0.049,0.28,0.088,0.559,0.105,0.845c0.012,0.203-0.12,0.41-0.291,0.508c-0.316,0.182-0.422,1.058-0.57,1.392
		c-0.069,0.158-0.188,0.246-0.321,0.283c0.005,0.026,0.009,0.053,0.009,0.08c0.003,0.246-0.071,0.497-0.274,0.637
		c-0.064,0.1-0.129,0.199-0.191,0.299c0.119,0.004,0.234,0.064,0.295,0.173c0.294,0.529,0.618,0.88,1.17,1.143
		c0.114,0.054,0.187,0.2,0.185,0.322c-0.003,0.163-0.017,0.303-0.048,0.444c0.058,0.064,0.116,0.129,0.173,0.195
		c0.153,0.141,0.28,0.297,0.381,0.466c0.24,0.31,0.785,1.118,1.079,1.891c0.052-0.024,0.112-0.061,0.178-0.108l0.006-0.02
		c0.018-0.244,0.227-0.443,0.479-0.385c0.17-0.156,0.337-0.313,0.469-0.432c-0.197-0.24-0.146-0.687-0.117-0.969
		c0.039-0.385,0.124-0.632,0.396-0.902l0.021-0.015c0.006-0.376,0.22-0.602,0.54-0.84c0.888-0.66,1.468-1.804,0.959-2.878
		c-0.009-0.019,0.015-0.042,0.031-0.024c0.493,0.535,0.4,1.188,0.117,1.824c-0.173,0.39-0.354,0.797-0.681,1.086
		c-0.34,0.301-0.53,0.554-0.65,1.004c-0.017,0.063-0.058,0.097-0.104,0.108c-0.06,0.203-0.039,0.538-0.024,0.722
		c0.002,0.023,0.007,0.047,0.012,0.07c0.121-0.026,0.26,0.007,0.349,0.088c0.263-0.302,0.623-0.537,1.011-0.602
		c0.014-0.069,0.03-0.138,0.051-0.206c0.021-0.082,0.097-0.126,0.174-0.13c0.223-0.288,0.655-0.489,0.951-0.562
		c0.715-0.176,1.373,0.6,2.098,0.537c0.078-0.007,0.094,0.12,0.018,0.136c-0.611,0.125-0.959-0.191-1.537-0.273
		c-0.566-0.08-0.851,0.385-1.252,0.666c-0.001,0.024-0.004,0.051-0.008,0.081c-0.018,0.144-0.108,0.268-0.267,0.267
		c-0.331-0.002-0.738,0.26-0.772,0.613c-0.021,0.222-0.21,0.402-0.422,0.376c-0.001,0.016-0.003,0.032-0.004,0.048
		c0.091,0.367-0.211,0.559-0.484,0.539c-0.083,0.121-0.157,0.244-0.189,0.374c-0.055,0.224-0.34,0.393-0.564,0.314
		c0.012,0.082-0.001,0.169-0.051,0.248c-0.071,0.111-0.141,0.222-0.212,0.333c-0.044,0.07-0.099,0.116-0.159,0.147
		c-0.029,0.366-0.3,0.677-0.493,1.086c-0.049,0.105-0.16,0.176-0.279,0.202c-0.025,0.112-0.05,0.224-0.074,0.336
		c-0.002,0.126-0.027,0.244-0.075,0.361c-0.028,0.141-0.053,0.281-0.073,0.419c-0.002,0.018-0.008,0.035-0.013,0.052
		c0.06,0.057,0.096,0.137,0.084,0.24c-0.004,0.031-0.01,0.061-0.015,0.092h0.003c-0.003,0.017-0.008,0.034-0.011,0.051
		c-0.025,0.147-0.059,0.29-0.098,0.433c-0.048,0.191-0.101,0.381-0.159,0.571c-0.05,0.192-0.088,0.387-0.105,0.587l0.011,0.001
		c0.047,0.009,0.116,0.019,0.191,0.034c0.438-0.102,0.894-0.047,1.328,0.105c0.004-0.012,0.006-0.025,0.01-0.037
		c0.039-0.142,0.231-0.163,0.306-0.04c0.142,0.234,0.372,0.284,0.616,0.306c0.156-0.048,0.294-0.13,0.472-0.137
		c0.297-0.012,0.595,0.018,0.892,0.029c0.672,0.026,1.409,0.092,2.074-0.026c0.065-0.011,0.19-0.027,0.311-0.058
		c-0.155-0.277-0.013-0.565,0.041-0.862c0.074-0.412,0.071-0.742-0.074-1.152c-0.008-0.021,0.027-0.036,0.036-0.015
		c0.125,0.283,0.53,0.831,0.68,1.318c0.039-0.006,0.077-0.012,0.116-0.019c0.01-0.047,0.022-0.088,0.038-0.114
		c0.166-0.283,0.532-0.435,0.807-0.581c0.279-0.148,0.383,0.004,0.455-0.159c0.058-0.13,0.215-0.156,0.337-0.137
		c0.037,0.002,0.074,0,0.111,0l-0.004-0.026c-0.032-0.232,0.123-0.396,0.359-0.359c0.068,0.011,0.147,0.014,0.229,0.016
		c-0.107-0.521-0.193-1.047-0.061-1.569c0.017-0.07,0.078-0.102,0.144-0.11c0.03-0.003,0.061-0.007,0.092-0.011l0.013,0.002
		c0.015-0.021,0.035-0.044,0.062-0.073c-0.005-0.274-0.02-0.544-0.061-0.824c-0.011-0.074,0.017-0.139,0.092-0.163
		c0.093-0.038,0.187-0.076,0.28-0.114c0.002-0.784,1.41-0.269,1.445-1.241c0.001-0.018,0.017-0.032,0.035-0.027
		c0.282-0.02,0.564-0.04,0.846-0.06c0.011-0.006,0.021,0.011,0.01,0.017c-0.178,0.104-0.384,0.224-0.604,0.166
		c-0.305-0.081-0.221,0.238-0.325,0.37c-0.282,0.358-1.198,0.304-0.988,0.883L48.1,37.809
		C48.158,37.998,47.896,38.133,47.768,38.017z M26.382,43.38c-0.008-0.009-0.014-0.019-0.017-0.032l-0.019-0.008
		c0.008,0.015,0.016,0.029,0.024,0.043L26.382,43.38z M29.065,49.186c-0.009-0.02-0.017-0.04-0.026-0.06l-0.001,0.004
		c0.007,0.018,0.015,0.037,0.022,0.056l0.004,0.004L29.065,49.186z M34.175,31.182l0.017-0.008l0.008-0.02l-0.02-0.005
		C34.179,31.16,34.176,31.171,34.175,31.182z M29.315,46.838l-0.009,0.009l0.003,0.002L29.315,46.838z M37.886,37.663
		c-0.094-0.394-0.195-0.791-0.542-0.945c-0.111-0.049-0.208-0.215-0.193-0.336c0.05-0.418,0.011-0.782-0.166-1.087
		c-0.064-0.086-0.129-0.171-0.195-0.254c-0.094-0.096-0.206-0.185-0.341-0.265c-0.107-0.063-0.193-0.2-0.19-0.332l0,0
		c-0.479-0.473-1.024-0.839-1.675-1.043c-0.051,0.057-0.109,0.109-0.174,0.153c-0.036,0.096-0.087,0.187-0.161,0.27
		c-0.064,0.072-0.14,0.116-0.221,0.141c0.002,0.185-0.146,0.311-0.318,0.341c-0.012,0.015-0.024,0.029-0.037,0.043
		c-0.079,0.304-0.156,0.61-0.349,0.861c-0.13,0.169-0.305,0.234-0.466,0.219c-0.001,0.067-0.025,0.131-0.064,0.187
		c0.025,0.161,0.002,0.322-0.115,0.474c-0.174,0.227-0.358,0.268-0.492,0.536c-0.168,0.334-0.423,0.71-0.728,1.034
		c0.1,0.25-0.166,0.603-0.453,0.497c-0.016-0.006-0.03-0.013-0.046-0.019c-0.002,0.018-0.002,0.035-0.006,0.054
		c-0.065,0.297-0.169,0.562-0.325,0.805c-0.177,0.317-0.383,0.618-0.534,0.945c-0.018,0.101-0.038,0.203-0.058,0.304
		c-0.021,0.108-0.072,0.189-0.138,0.246c-0.048,0.104-0.119,0.175-0.202,0.218c-0.003,0.022-0.005,0.044-0.007,0.066
		c-0.009,0.123-0.017,0.246-0.021,0.369c-0.002,0.056-0.013,0.105-0.028,0.151c0.007,0.038,0.012,0.077,0.011,0.119
		c-0.014,0.427-0.205,0.839-0.292,1.255c-0.011,0.052-0.038,0.167-0.07,0.312c0.016,0.057,0.037,0.11,0.066,0.158l0.003,0.008
		c0.01,0.016,0.02,0.033,0.029,0.052c0.265,0.563,0.304,1.013,0.095,1.611c-0.038,0.11-0.111,0.209-0.203,0.283
		c-0.021,0.095-0.056,0.188-0.106,0.281c0.052,0.305,0.102,0.611,0.149,0.918c0.083,0.093,0.126,0.226,0.093,0.375
		c-0.021,0.096-0.037,0.197-0.049,0.3l0.018-0.027c0.033-0.047,0.101-0.007,0.077,0.045c-0.105,0.227-0.118,0.506-0.073,0.753
		c0.219,0.09,0.353,0.232,0.42,0.411c0.065-0.129,0.271-0.18,0.391-0.07c0.065-0.009,0.132,0,0.193,0.037
		c0.137,0.083,0.271,0.164,0.403,0.25c0.112-0.067,0.223-0.133,0.327-0.188c0.063-0.06,0.138-0.107,0.223-0.139
		c0.053-0.082,0.124-0.15,0.207-0.202c-0.008-0.051-0.004-0.105,0.019-0.161c0.12-0.289,0.295-0.497,0.541-0.665
		c0.108-0.288,0.412-0.484,0.725-0.44c-0.075-0.293,0.078-0.56,0.312-0.726c0.418-0.296,0.775-0.555,1.086-0.969
		c0.188-0.25,0.102-0.514,0.253-0.771c0.202-0.345,0.536-0.513,0.709-0.916c0.122-0.284,0.254-0.461,0.488-0.66
		c0.021-0.018,0.043-0.031,0.065-0.045c0.012-0.065,0.04-0.129,0.078-0.181c0.036-0.073,0.097-0.129,0.179-0.151
		c0.046-0.046,0.097-0.086,0.15-0.122c-0.054-0.148-0.033-0.324,0.107-0.477c0.39-0.427,0.418-1.1,0.615-1.622l0.007-0.015
		c0.016-0.047,0.032-0.093,0.051-0.139c0.009-0.487,0.257-1.021,0.589-1.507C37.62,38.049,37.739,37.843,37.886,37.663z"/>
</g>
</svg>