<svg width="667" height="667" viewBox="0 0 667 667" fill="none" xmlns="http://www.w3.org/2000/svg">
<g clip-path="url(#clip0_1_2)">
<mask id="mask0_1_2" style="mask-type:luminance" maskUnits="userSpaceOnUse" x="0" y="-5" width="667" height="667">
<path d="M0 -5H666.667V661.667H0V-5Z" fill="white"/>
</mask>
<g mask="url(#mask0_1_2)">
<path fill-rule="evenodd" clip-rule="evenodd" d="M517.844 460.562L494.677 547.022H171.989L148.822 460.562C271.582 461.812 395.097 461.812 517.844 460.562Z" fill="black"/>
<path fill-rule="evenodd" clip-rule="evenodd" d="M457.68 562.816L478.539 565.263L457.75 568.243C456.251 568.263 455.02 567.064 455 565.566C454.983 564.066 456.182 562.836 457.68 562.816Z" fill="black"/>
<path fill-rule="evenodd" clip-rule="evenodd" d="M217.271 562.816L196.412 565.263L217.201 568.243C218.7 568.263 219.931 567.064 219.949 565.566C219.968 564.066 218.769 562.836 217.271 562.816Z" fill="black"/>
<path fill-rule="evenodd" clip-rule="evenodd" d="M240.043 195.837L322.863 146.054C348.428 130.689 381.919 139.032 397.286 164.598L488.858 316.946C504.224 342.512 495.88 376.001 470.314 391.366L387.494 441.148C361.928 456.516 328.439 448.17 313.071 422.606L221.5 270.257C206.132 244.693 214.478 211.202 240.043 195.837Z" fill="black"/>
<path fill-rule="evenodd" clip-rule="evenodd" d="M381.879 145.009L463.634 191.844C488.87 206.3 494.88 238.588 480.431 265.565L394.407 426.182C386.396 441.14 367.7 450.49 351.148 452.54C337.847 454.188 325.616 451.072 310.122 442.196L228.366 395.361C203.13 380.905 195.572 347.729 211.571 321.64L306.907 166.161C322.906 140.07 356.643 130.552 381.879 145.009Z" fill="white"/>
<path fill-rule="evenodd" clip-rule="evenodd" d="M382.279 145.009L466.801 191.844C492.892 206.301 502.409 239.476 487.953 265.565L401.801 421.044C387.345 447.134 354.169 456.652 328.08 442.196L243.557 395.361C217.468 380.905 207.948 347.729 222.405 321.64L308.556 166.161C323.013 140.07 356.188 130.552 382.279 145.009Z" fill="#FF5C1D"/>
<path fill-rule="evenodd" clip-rule="evenodd" d="M443.272 358.73L399.183 425.348L433.609 363.43L443.272 358.73Z" fill="white"/>
<path fill-rule="evenodd" clip-rule="evenodd" d="M399.105 210.819C405.619 210.819 410.931 205.507 410.931 198.992C410.931 192.479 405.619 187.167 399.105 187.167C392.591 187.167 387.279 192.479 387.279 198.992C387.279 205.507 392.591 210.819 399.105 210.819Z" fill="white"/>
<path fill-rule="evenodd" clip-rule="evenodd" d="M376.436 142.216C377.264 139.308 378.429 135.333 379.367 132.939C380.46 130.147 381.712 127.344 383.125 124.547C391.029 108.899 402.379 96.7894 414.336 89.8614C426.768 82.6601 439.935 80.9721 450.889 86.5068C461.849 92.0428 468.305 103.644 469.884 117.924C471.403 131.656 468.389 147.975 460.483 163.623C453.237 177.965 443.092 189.337 432.239 196.467C420.889 203.92 408.696 206.797 398.007 203.739C396.075 203.188 394.953 201.176 395.503 199.244C396.053 197.311 398.065 196.191 399.997 196.741C408.589 199.199 418.668 196.704 428.256 190.408C438.089 183.948 447.331 173.547 453.997 160.352C461.251 145.991 464.031 131.132 462.659 118.721C461.347 106.856 456.229 97.3428 447.619 92.9921C439.003 88.6388 428.305 90.1641 417.977 96.1481C407.175 102.408 396.864 113.459 389.611 127.817C388.315 130.381 387.159 132.976 386.136 135.584C385.745 136.58 385.377 137.577 385.029 138.572C384.613 139.761 383.723 143.088 383.087 145.459L382.279 145.009C380.365 143.949 378.413 143.021 376.436 142.216Z" fill="black"/>
<path fill-rule="evenodd" clip-rule="evenodd" d="M396.611 204.725C417.553 206.153 433.865 198.732 447.665 182.901C458.723 170.219 463.217 158.695 467.905 143.635C464.053 165.199 455.077 182.067 439.637 194.789C426.133 205.915 413.284 209.635 395.936 208.788L396.611 204.725Z" fill="white"/>
<path fill-rule="evenodd" clip-rule="evenodd" d="M229.319 352.754C183.704 359.439 145.268 369.356 203.978 377.96C262.686 386.564 336.299 404.376 366.166 391.831L485.02 341.902C495.003 337.71 493.194 332.574 483.01 330.488C467.74 327.363 450.132 324.164 447.26 324.006C447.26 324.006 239.456 344.698 229.319 352.754Z" fill="black"/>
<path fill-rule="evenodd" clip-rule="evenodd" d="M361.001 311.896C352.524 311.385 348.421 311.14 340.095 310.639C329.715 310.013 320.376 325.288 319.237 344.756C318.097 364.223 325.588 380.512 335.969 381.136C344.447 381.647 348.549 381.893 356.876 382.395C367.256 383.019 376.595 367.744 377.735 348.276C378.873 328.809 371.383 312.521 361.001 311.896Z" fill="black"/>
<path fill-rule="evenodd" clip-rule="evenodd" d="M463.79 295.906C459.142 295.626 456.893 295.492 452.328 295.216C446.637 294.874 441.517 305.581 440.892 319.132C440.266 332.682 444.373 343.945 450.065 344.288C454.713 344.568 456.964 344.704 461.529 344.978C467.22 345.321 472.34 334.612 472.965 321.062C473.59 307.512 469.482 296.249 463.79 295.906Z" fill="black"/>
<path fill-rule="evenodd" clip-rule="evenodd" d="M234.023 319.728C229.375 318.709 227.126 318.217 222.561 317.217C216.87 315.97 211.749 325.864 211.125 339.314C210.499 352.765 214.607 364.682 220.298 365.928C224.946 366.946 227.197 367.44 231.762 368.438C237.453 369.686 242.573 359.793 243.198 346.341C243.823 332.89 239.715 320.976 234.023 319.728Z" fill="black"/>
<path fill-rule="evenodd" clip-rule="evenodd" d="M171.892 334.686C171.328 328.267 171.109 320.329 172.692 314.523C173.833 310.331 176.108 305.974 178.987 302.543C179.328 298.813 180.444 294.482 181.611 291.254C183.152 286.99 185.463 282.809 189.137 280.022C191.124 278.517 193.575 277.531 195.877 276.611C198.819 275.437 201.805 274.381 204.797 273.345C212.761 270.59 220.796 268.038 228.84 265.522C239.293 262.254 249.773 259.075 260.272 255.959C288.507 232.809 308.331 224.239 345.615 223.837C374.412 223.526 414.197 225.843 439.059 241.453C446.359 246.037 454.112 251.986 459.819 258.457C461.463 260.322 463.688 262.019 465.697 263.475C468.051 265.181 470.501 266.759 473.001 268.247C474.407 269.085 475.84 269.951 477.316 270.655C482.897 273.317 484.171 279.107 485.013 284.621C485.66 288.853 486.053 293.117 486.412 297.381C486.873 302.882 486.565 308.483 487.207 314.05C488.581 325.989 482.72 330.182 473.189 330.394L471.08 296.386V288.625L197.264 308.718C187.439 306.489 186.296 349.354 184.575 351.075C170.875 350.259 168.293 339.746 171.892 334.686Z" fill="white"/>
<path fill-rule="evenodd" clip-rule="evenodd" d="M262.887 260.88C290.169 238.362 308.707 229.698 345.673 229.298C372.647 229.008 412.233 231.06 436.155 246.078C442.795 250.247 450.483 256.128 455.721 262.07C457.619 264.22 460.179 266.223 462.492 267.899C464.977 269.699 467.576 271.374 470.207 272.94C471.719 273.842 473.38 274.831 474.967 275.586C478.465 277.255 479.105 282.12 479.613 285.447C480.241 289.546 480.624 293.724 480.969 297.84C481.287 301.612 481.551 305.386 481.805 309.159C481.945 311.227 482.025 313.42 482.263 315.478C482.624 318.62 481.885 322.346 480.092 324.874L479.752 325.354L466.909 335.898V325.296V314.736C466.909 311.77 466.727 308.58 466.103 305.638C465.944 304.892 465.437 302.902 464.86 301.932C464.64 302.038 464.417 302.171 464.292 302.251C461.947 303.738 459.968 312.236 459.431 314.908C458.312 320.474 457.559 326.616 457.261 332.352L457.104 335.399L372.249 364.426L373.173 356.484C374.247 347.264 374.9 329.574 371.384 320.718C370.36 318.144 368.539 315.379 365.783 314.452C359.6 312.37 353.717 320.327 351.309 324.631C349.505 327.856 348.224 331.431 347.276 335.039C345.401 342.175 344.736 349.726 344.384 357.166C344.249 359.991 344.185 362.836 343.996 365.652C343.839 367.992 343.641 370.803 341.984 372.528C338.215 376.447 324.215 376.124 319.119 376.016C310.648 375.836 302.088 375.11 293.625 374.179C280.84 372.772 268.052 370.834 255.333 368.639C243.907 366.67 185.54 356.736 176.665 347.328C173.145 343.596 174.711 339.336 177.545 336.412C176.873 330.003 176.511 321.287 177.961 315.96C179.012 312.1 181.367 307.77 184.344 304.766V304.7C184.344 301.311 185.631 296.202 186.748 293.111C187.917 289.875 189.676 286.467 192.436 284.375C193.892 283.274 196.191 282.368 197.903 281.686C200.756 280.546 203.673 279.514 206.581 278.507C214.483 275.774 222.479 273.234 230.471 270.735C241.244 267.366 252.056 264.09 262.887 260.88Z" fill="black"/>
<path fill-rule="evenodd" clip-rule="evenodd" d="M265.37 265.229C249.954 269.792 200.115 284.744 195.468 288.264C190.823 291.787 189.132 302.877 189.132 304.988V307.1C189.132 307.1 184.428 310.716 182.586 317.479C180.746 324.239 182.586 338.594 182.586 338.594C182.586 338.594 177.835 341.795 180.052 344.145C182.27 346.496 195.679 353.533 255.867 363.913C316.055 374.293 336.328 371.289 338.44 369.092C340.551 366.897 337.384 339.465 347.098 322.097C356.812 304.732 370.751 306.416 375.819 319.181C380.888 331.944 377.931 357.319 377.931 357.319L452.479 331.819C452.479 331.819 450.916 318.953 453.142 308.236C454.178 303.239 457.03 297.469 459.448 295.936C464.068 293.005 470.731 295.927 472.56 300.368C476.046 308.831 475.159 314.609 475.215 322.876L476.132 321.944C476.132 321.944 477.927 319.412 477.504 315.744C477.082 312.076 475.658 281.104 473.123 279.896C470.59 278.688 457.919 271.589 452.218 265.121C448.32 260.701 437.423 250.832 423.027 244.281C404.874 236.019 364.839 233.893 346.011 234.096C310.384 234.48 292.844 242.44 265.37 265.229Z" fill="#FF5C1D"/>
<path fill-rule="evenodd" clip-rule="evenodd" d="M202.134 312.948C202.09 312.593 216.097 318.651 236.071 320.567C244.178 321.345 260.295 324.188 270.847 323.467C274.447 323.22 274.433 322.965 271.859 326.122C265.639 333.753 258.994 334.147 244.338 332.643C228.526 331.017 217.987 328.611 209.067 325.357C205.003 323.875 202.782 318.081 202.134 312.948ZM203.793 300.157C203.271 300.723 202.669 304.068 202.639 308.151C202.625 310.048 203.945 311.403 205.647 311.861C221.271 316.053 250.325 319.783 268.51 321.391C271.741 321.676 274.881 322.312 276.399 319.069C277.973 315.711 278.042 313.112 276.151 311.263C274.794 309.936 252.149 307.199 233.431 304.587C216.897 302.279 203.962 299.976 203.793 300.157Z" fill="#D43808"/>
<path fill-rule="evenodd" clip-rule="evenodd" d="M181.986 320.991C181.26 328.254 182.586 338.595 182.586 338.595C182.586 338.595 177.835 341.795 180.052 344.144C182.27 346.496 195.68 353.532 255.867 363.912C316.055 374.294 336.328 371.29 338.44 369.092C340.551 366.898 337.384 339.464 347.098 322.098C356.812 304.732 370.751 306.415 375.819 319.182C380.888 331.944 377.931 357.319 377.931 357.319L452.479 331.819C452.479 331.819 451.68 302.702 459.448 298.154C467.084 293.683 470.672 299.631 472.559 306.576C474.758 314.675 473.56 324.855 473.756 324.632L476.132 321.944C476.132 321.944 477.927 319.411 477.504 315.743C477.168 312.823 476.196 292.584 474.535 283.854C474.198 285.386 473.77 286.974 473.235 288.347C471.546 292.679 447.47 294.398 447.47 294.398L376.514 310.823C376.514 310.823 371.655 302.928 362.363 303.848C353.071 304.767 346.524 318.734 341.034 329.174C336.708 337.398 324.915 342.156 317.418 343.234C325.164 348.86 331.838 365.255 327.938 366.252C323.924 367.278 300.483 365.234 298.583 363.007C296.682 360.782 294.148 345.634 292.882 345.135C291.615 344.638 273.03 342.463 273.03 342.463C277.387 341.498 282.226 340.687 287.094 340.148C277.586 340.303 268.996 341.22 267.754 341.868C265.22 343.195 254.66 341.08 254.66 341.08C254.66 341.08 201.232 333.431 198.486 331.364C195.846 329.378 185.579 322.436 181.986 320.991Z" fill="#D43808"/>
<path fill-rule="evenodd" clip-rule="evenodd" d="M182.277 318.863C180.973 326.018 181.743 337.646 181.743 337.646C182.019 338.827 184.579 340.009 186.273 340.391C188.055 340.794 189.824 341.287 190.351 339.962C191.281 337.614 192.277 333.281 192.569 330.311C192.979 326.127 192.681 325.046 182.277 318.863Z" fill="black"/>
<path fill-rule="evenodd" clip-rule="evenodd" d="M195.469 288.264C190.823 291.787 189.133 302.878 189.133 304.988V307.1C189.133 307.1 189.039 307.174 188.873 307.316C189.555 308.034 194.365 310.847 196.986 312.159C197.649 312.491 198.463 311.915 198.519 311.4C198.913 307.759 198.587 300.923 198.587 299.87C198.587 299.082 196.795 287.259 195.469 288.264Z" fill="black"/>
<path fill-rule="evenodd" clip-rule="evenodd" d="M311.28 238.332C295.413 242.812 282.292 251.2 265.436 265.175L378.304 275.245C378.304 275.245 391.489 243.352 390.552 241.981C389.613 240.611 335.399 239.045 311.28 238.332Z" fill="black"/>
<path fill-rule="evenodd" clip-rule="evenodd" d="M275.986 255.888C271.022 252.739 263.843 253.468 261.412 261.875C258.984 270.281 269.227 263.507 275.986 255.888Z" fill="black"/>
<path fill-rule="evenodd" clip-rule="evenodd" d="M296.997 307.519C287.707 313.717 276.303 326.547 286.228 325.878C296.153 325.209 324.663 324.178 329.943 318.794C335.223 313.41 342.613 301.818 337.756 300.891C332.9 299.965 307.136 304.327 296.997 307.519Z" fill="black"/>
<path fill-rule="evenodd" clip-rule="evenodd" d="M201.708 311.503C201.662 311.148 215.415 316.724 236.224 318.641C244.671 319.419 261.459 322.261 272.451 321.539C276.2 321.293 276.184 321.037 273.504 324.196C267.024 331.827 260.103 332.22 244.838 330.715C228.363 329.089 217.804 326.364 208.514 323.109C204.28 321.628 202.384 316.637 201.708 311.503ZM202.6 298.231C202.056 298.796 201.43 302.141 201.398 306.224C201.383 308.121 202.759 309.476 204.531 309.933C220.806 314.127 251.071 317.856 270.015 319.464C273.382 319.749 276.652 320.385 278.235 317.141C279.872 313.784 279.946 311.185 277.975 309.336C276.563 308.009 252.972 305.272 233.475 302.66C216.251 300.352 202.776 298.048 202.6 298.231Z" fill="black"/>
<path fill-rule="evenodd" clip-rule="evenodd" d="M268.806 342.462C283.801 339.142 304.497 337.642 312.521 342.77C320.546 347.9 327.726 365.226 323.714 366.253C319.702 367.277 296.259 365.233 294.359 363.006C292.458 360.78 289.925 345.634 288.658 345.136C287.39 344.638 268.806 342.462 268.806 342.462Z" fill="black"/>
<path fill-rule="evenodd" clip-rule="evenodd" d="M308.297 348.853C301.954 348.569 299.385 348.134 293.905 347.958C287.709 347.758 279.11 347.889 281.689 348.939C283.286 349.593 289.309 350.531 293.142 350.937C300.958 351.767 308.014 351.385 308.297 348.853Z" fill="black"/>
<path fill-rule="evenodd" clip-rule="evenodd" d="M312.31 356.484C298.794 355.883 280.843 354.591 285.701 356.572C290.558 358.555 311.889 360.26 312.31 356.484Z" fill="black"/>
<path fill-rule="evenodd" clip-rule="evenodd" d="M194.47 343.269C199.538 337.239 199.959 333.463 207.141 334.317C214.321 335.172 260.781 343.247 260.781 343.247C260.781 343.247 266.483 344.856 271.553 351.497L276.619 358.139C276.619 358.139 246.842 358.459 194.47 343.269Z" fill="black"/>
<path fill-rule="evenodd" clip-rule="evenodd" d="M385.697 339.361L440.815 320.502L433.846 330.854L385.274 347.57L385.697 339.361Z" fill="black"/>
<path fill-rule="evenodd" clip-rule="evenodd" d="M474.737 284.263C456.889 278.6 393.806 290.235 351.52 299.351L349.585 299.596C369.242 291.335 449.213 279.135 468.004 277.062C470.393 278.48 472.298 279.502 473.124 279.896C473.501 280.075 473.854 280.919 474.182 282.231L474.737 284.263Z" fill="black"/>
<path fill-rule="evenodd" clip-rule="evenodd" d="M396.534 250.296C392.65 260.472 388.426 277.014 389.499 277.078C390.766 277.156 445.039 268.806 445.884 267.59C447.696 264.98 435.343 256.045 428.506 252.152C416.942 245.564 406.616 243.957 401.514 243.101C398.839 242.653 398.059 246.301 396.534 250.296Z" fill="black"/>
<path fill-rule="evenodd" clip-rule="evenodd" d="M400.691 263.814C397.945 264.071 394.99 266.849 394.99 274.453C394.99 275.795 395.009 276.91 395.042 277.833C395.387 287.657 404.03 286.267 403.41 277.071C403.41 277.071 416.951 276.631 418.747 274.945C419.654 274.093 420.497 272.983 417.454 269.705C414.474 266.493 407.902 262.994 400.691 263.814Z" fill="black"/>
<path fill-rule="evenodd" clip-rule="evenodd" d="M385.651 336.013L450.954 316.044L437.135 325.085L385.218 347.081L385.651 336.013Z" fill="black"/>
<path fill-rule="evenodd" clip-rule="evenodd" d="M207.164 283.476L205.791 284.638C202.117 288.935 193.352 296.611 203.019 297.998C216.867 299.983 242.035 303.671 261.244 306.243C272.081 307.695 279.148 309.44 285.824 308.727C291.581 308.115 308.689 303.115 326.847 297.338C347.765 290.683 369.996 283.042 377.836 279.903C383.963 277.452 379.376 275.739 372.649 274.551L377.207 273.496C377.24 273.515 387.459 276.374 382.251 280.504C380.457 281.936 353.041 291.559 327.689 299.624C309.411 305.44 292.14 310.478 286.216 311.11C278.568 311.923 272.699 310.824 260.184 309.02C241.892 306.384 215.873 302.243 202.821 300.371C191.049 298.68 197.479 290.751 201.959 285.36C203.496 284.78 205.244 284.148 207.164 283.476Z" fill="black"/>
<path fill-rule="evenodd" clip-rule="evenodd" d="M350.504 325.902C353.565 320.544 357.661 317.362 362.067 317.626C362.175 317.633 362.32 317.646 362.505 317.668C366.565 318.124 370.032 321.437 372.445 326.548C374.743 331.412 376.111 337.96 376.111 345.186C376.111 346.15 376.084 347.166 376.028 348.234C375.607 356.266 373.585 363.456 370.656 368.586C367.595 373.944 363.499 377.126 359.092 376.862C358.984 376.856 358.84 376.841 358.655 376.82C354.595 376.365 351.128 373.049 348.715 367.94C346.419 363.077 345.049 356.528 345.049 349.302C345.049 348.337 345.077 347.32 345.133 346.253C345.552 338.221 347.575 331.033 350.504 325.902ZM362.067 320.021C358.6 319.813 355.236 322.564 352.599 327.18C349.832 332.026 347.919 338.856 347.517 346.52C347.468 347.466 347.444 348.442 347.444 349.446C347.444 356.314 348.721 362.49 350.865 367.032C352.892 371.324 355.66 374.093 358.777 374.442C358.843 374.449 358.949 374.458 359.092 374.468C362.56 374.676 365.924 371.925 368.56 367.309C371.328 362.462 373.241 355.633 373.643 347.969C373.692 347.021 373.716 346.044 373.716 345.041C373.716 338.173 372.437 331.997 370.295 327.457C368.267 323.162 365.499 320.396 362.383 320.045C362.317 320.038 362.212 320.03 362.067 320.021Z" fill="white"/>
<path fill-rule="evenodd" clip-rule="evenodd" d="M357.039 340.327C358.222 338.491 359.839 337.408 361.611 337.515C361.655 337.519 361.731 337.525 361.838 337.537C363.49 337.735 364.876 338.915 365.82 340.715C366.655 342.308 367.154 344.424 367.154 346.737C367.154 347.023 367.143 347.347 367.122 347.703C366.971 350.269 366.239 352.573 365.178 354.224C363.995 356.06 362.376 357.143 360.606 357.036C360.56 357.033 360.486 357.025 360.379 357.013C358.727 356.817 357.339 355.635 356.396 353.837C355.56 352.244 355.062 350.127 355.062 347.813C355.062 347.527 355.072 347.205 355.092 346.848C355.244 344.283 355.976 341.977 357.039 340.327ZM361.611 339.911C360.72 339.855 359.814 340.545 359.068 341.703C358.204 343.047 357.606 344.96 357.478 347.124C357.463 347.373 357.456 347.652 357.456 347.959C357.456 349.875 357.846 351.584 358.5 352.831C359.047 353.873 359.751 354.545 360.51 354.636L360.606 354.641C361.495 354.695 362.402 354.007 363.146 352.849C364.011 351.505 364.611 349.591 364.738 347.428C364.751 347.179 364.759 346.9 364.759 346.592C364.759 344.677 364.37 342.965 363.715 341.72C363.17 340.679 362.463 340.005 361.706 339.915L361.611 339.911Z" fill="white"/>
<path fill-rule="evenodd" clip-rule="evenodd" d="M359.069 341.4C357.565 341.309 356.22 343.721 356.062 346.788C355.906 349.854 356.997 352.414 358.501 352.504C360.004 352.594 361.349 350.182 361.506 347.116C361.662 344.049 360.572 341.489 359.069 341.4Z" fill="white"/>
<path fill-rule="evenodd" clip-rule="evenodd" d="M358.501 351.31C358.505 351.311 358.504 351.31 358.501 351.31ZM356.009 342.281C356.763 340.929 357.843 340.129 359.069 340.202L359.197 340.217C360.361 340.345 361.308 341.215 361.924 342.549C362.421 343.625 362.719 345.051 362.719 346.605C362.719 346.777 362.712 346.99 362.699 347.247C362.612 348.961 362.184 350.507 361.561 351.623C360.807 352.975 359.727 353.775 358.501 353.702L358.371 353.686C357.208 353.559 356.261 352.689 355.644 351.355C355.147 350.279 354.851 348.853 354.851 347.299C354.851 347.127 354.857 346.914 354.871 346.655C354.959 344.943 355.387 343.395 356.009 342.281ZM359.069 342.597C358.792 342.581 358.447 342.942 358.113 343.539C357.647 344.374 357.324 345.566 357.255 346.921C357.249 347.057 357.245 347.231 357.245 347.445C357.245 348.647 357.455 349.707 357.807 350.466C358.039 350.97 358.284 351.285 358.492 351.31H358.501C358.493 351.309 358.473 351.305 358.501 351.307C358.777 351.323 359.123 350.962 359.456 350.365C359.921 349.53 360.245 348.338 360.313 346.983C360.32 346.847 360.324 346.671 360.324 346.459C360.324 345.257 360.115 344.197 359.764 343.438C359.529 342.934 359.287 342.618 359.077 342.594H359.069C359.077 342.595 359.095 342.598 359.069 342.597Z" fill="white"/>
<path fill-rule="evenodd" clip-rule="evenodd" d="M458.035 305.742C459.714 301.987 461.959 299.737 464.375 299.882C464.434 299.886 464.514 299.894 464.615 299.907C466.84 300.189 468.742 302.463 470.064 305.995C471.324 309.358 472.074 313.902 472.074 318.927C472.074 319.598 472.06 320.306 472.028 321.047C471.798 326.639 470.69 331.657 469.083 335.251C467.404 339.005 465.16 341.255 462.743 341.109C462.684 341.105 462.606 341.098 462.504 341.085C460.278 340.803 458.376 338.529 457.054 334.995C455.794 331.634 455.044 327.091 455.044 322.065C455.044 321.394 455.06 320.686 455.09 319.943C455.32 314.353 456.43 309.334 458.035 305.742ZM464.375 301.547C462.474 301.434 460.628 303.378 459.183 306.611C457.666 310.006 456.618 314.774 456.396 320.106C456.37 320.767 456.356 321.446 456.356 322.145C456.356 326.922 457.058 331.206 458.232 334.345C459.344 337.313 460.862 339.214 462.57 339.43C462.607 339.434 462.666 339.438 462.743 339.443C464.644 339.558 466.49 337.615 467.935 334.381C469.452 330.986 470.502 326.218 470.722 320.885C470.748 320.225 470.762 319.546 470.762 318.847C470.762 314.071 470.062 309.786 468.886 306.647C467.775 303.679 466.256 301.778 464.548 301.562C464.512 301.558 464.454 301.553 464.375 301.547Z" fill="white"/>
<path fill-rule="evenodd" clip-rule="evenodd" d="M461.619 315.717C462.265 314.429 463.152 313.663 464.125 313.72C464.148 313.721 464.191 313.727 464.249 313.735C465.155 313.856 465.916 314.665 466.432 315.908C466.891 317.009 467.163 318.477 467.163 320.085C467.163 320.285 467.157 320.509 467.147 320.756C467.064 322.543 466.663 324.152 466.08 325.311C465.431 326.597 464.544 327.365 463.573 327.307C463.548 327.304 463.507 327.301 463.449 327.293C462.543 327.171 461.783 326.36 461.264 325.119C460.808 324.019 460.535 322.549 460.535 320.941C460.535 320.743 460.54 320.519 460.551 320.269C460.635 318.483 461.036 316.875 461.619 315.717ZM464.125 315.385C463.637 315.356 463.14 315.844 462.731 316.656C462.257 317.597 461.928 318.933 461.86 320.44C461.851 320.613 461.848 320.808 461.848 321.021C461.848 322.355 462.06 323.539 462.42 324.401C462.719 325.121 463.105 325.583 463.521 325.637L463.573 325.641C464.061 325.671 464.559 325.183 464.967 324.371C465.441 323.429 465.769 322.093 465.84 320.587C465.847 320.412 465.852 320.219 465.852 320.007C465.852 318.673 465.637 317.488 465.279 316.627C464.98 315.907 464.592 315.444 464.176 315.389L464.125 315.385Z" fill="white"/>
<path fill-rule="evenodd" clip-rule="evenodd" d="M462.731 316.444C461.907 316.395 461.169 318.084 461.084 320.219C460.997 322.353 461.595 324.124 462.42 324.173C463.244 324.223 463.981 322.532 464.068 320.399C464.153 318.264 463.555 316.493 462.731 316.444Z" fill="white"/>
<path fill-rule="evenodd" clip-rule="evenodd" d="M462.419 323.342C462.422 323.342 462.421 323.342 462.419 323.342ZM461.054 317.085C461.467 316.137 462.058 315.572 462.73 315.612L462.802 315.62C463.439 315.7 463.958 316.297 464.297 317.217C464.569 317.962 464.731 318.952 464.731 320.033C464.731 320.15 464.727 320.301 464.722 320.481C464.673 321.673 464.439 322.752 464.098 323.533C463.683 324.481 463.091 325.046 462.419 325.005L462.349 324.997C461.711 324.918 461.191 324.32 460.854 323.4C460.581 322.654 460.418 321.665 460.418 320.585C460.418 320.466 460.422 320.316 460.429 320.138C460.477 318.945 460.713 317.866 461.054 317.085ZM462.73 317.277C462.579 317.268 462.391 317.522 462.207 317.941C461.951 318.526 461.775 319.358 461.737 320.301C461.733 320.394 461.73 320.517 461.73 320.664C461.73 321.501 461.845 322.237 462.038 322.761C462.167 323.11 462.301 323.328 462.415 323.342H462.419C462.415 323.341 462.405 323.34 462.419 323.34C462.571 323.35 462.761 323.094 462.945 322.676C463.199 322.093 463.375 321.26 463.414 320.316C463.418 320.222 463.419 320.101 463.419 319.953C463.419 319.116 463.305 318.38 463.113 317.856C462.985 317.506 462.85 317.29 462.735 317.276L462.73 317.274C462.735 317.276 462.746 317.277 462.73 317.277Z" fill="white"/>
<path fill-rule="evenodd" clip-rule="evenodd" d="M181.586 318.096C190.125 322.692 194.313 326.195 200.666 332.267C192.37 330.99 189.147 329.531 181.333 327.219L181.586 318.096Z" fill="black"/>
<path fill-rule="evenodd" clip-rule="evenodd" d="M182.945 329.926C185.867 330.924 187.075 331.103 189.592 332.012C192.44 333.042 196.361 334.755 195.104 335.01C194.324 335.166 191.501 334.69 189.717 334.254C186.083 333.362 182.885 331.762 182.945 329.926Z" fill="black"/>
<path fill-rule="evenodd" clip-rule="evenodd" d="M182.017 333.905C188.242 336.032 196.545 338.51 194.176 338.989C191.808 339.465 181.929 336.642 182.017 333.905Z" fill="black"/>
<path fill-rule="evenodd" clip-rule="evenodd" d="M335.772 306.499C324.867 307.437 304.459 306.879 295.884 313.409C292.368 316.087 288.285 320.448 285.095 323.645C288.083 319.193 290.691 315.713 294.857 312.177C303.616 304.744 323.952 304.713 335.364 303.413L335.772 306.499Z" fill="white"/>
<path fill-rule="evenodd" clip-rule="evenodd" d="M334.51 303.478C340.432 303.006 329.849 315.772 327.858 317.415C326.306 318.696 321.78 319.359 319.622 319.739L316.033 320.374L316.665 317.1C316.705 316.895 317.253 316.803 317.989 316.678C324.32 315.611 324.826 308.523 320.984 307.612C320.981 307.612 317.442 307.164 317.354 307.162L317.721 305.696L334.51 303.478Z" fill="white"/>
<path fill-rule="evenodd" clip-rule="evenodd" d="M192.548 292.01C193.981 293.56 194.737 295.397 195.187 297.645C195.748 300.466 196.249 303.68 196.925 308.44C196.927 304.793 196.991 304.009 196.753 300.445C196.423 295.484 195.633 292.286 193.832 289.949C193.364 290.569 192.937 291.264 192.548 292.01Z" fill="white"/>
<path fill-rule="evenodd" clip-rule="evenodd" d="M189.133 305.087L189.175 305.124C190.114 305.954 192.833 307.859 192.906 307.746C192.985 307.624 192.681 307.264 192.891 305.012C192.911 304.807 192.603 304.539 192.19 304.176C188.826 301.234 191.827 291.795 195.093 296.744C195.597 297.508 196.331 298.404 196.358 298.418L195.867 294.432L192.634 291.85C190.114 296.563 189.133 303.38 189.133 304.988V305.087Z" fill="white"/>
<path fill-rule="evenodd" clip-rule="evenodd" d="M398.005 264.987C401.777 264.896 405.377 265.942 409.496 267.764C413.033 269.331 414.595 271.308 415.287 273.23C415.624 274.17 415.753 275.094 415.803 275.95C417.223 275.679 418.319 275.347 418.748 274.944C419.316 274.41 419.861 273.774 419.433 272.563C419.181 271.846 418.588 270.924 417.455 269.704C414.475 266.492 407.903 262.994 400.692 263.814C399.78 263.9 398.847 264.262 398.005 264.987Z" fill="white"/>
<path fill-rule="evenodd" clip-rule="evenodd" d="M301.582 262.697C290.327 259.955 296.547 252.045 320.158 240.37C319.106 240.338 305.755 240.079 304.574 240.517C293.69 244.554 283.733 250.715 272.333 259.614C270.569 261.247 268.765 262.698 267.131 263.779C266.57 264.237 266.005 264.703 265.437 265.174L353.327 273.017C337.534 270.725 312.835 265.439 301.582 262.697Z" fill="white"/>
<path fill-rule="evenodd" clip-rule="evenodd" d="M260.268 262.872C296.066 264.9 336.855 268.331 372.291 273.799C375.304 274.266 377.907 274.59 380.775 275.528L379.2 275.411C339.139 271.816 300.455 267.942 260.111 266.223C259.186 266.178 258.471 265.394 258.515 264.468C258.559 263.544 259.343 262.83 260.268 262.872Z" fill="black"/>
<path fill-rule="evenodd" clip-rule="evenodd" d="M370.742 279.487C363.562 282.232 292.287 305.779 281.729 305.779C276.011 305.779 225.139 299.374 203.409 295.876C200.142 295.35 199.155 293.6 199.254 292.69C197.982 295.198 198.358 297.328 203.018 297.998C210.599 299.084 221.574 300.682 233.105 302.327C235.881 302.724 238.69 303.123 241.491 303.516C248.307 304.479 255.082 305.419 261.243 306.243C272.081 307.695 279.149 309.44 285.825 308.728C291.581 308.116 308.689 303.115 326.846 297.339C347.766 290.683 369.995 283.042 377.835 279.903C382.645 277.979 380.851 276.511 376.603 275.392C376.886 276.399 375.145 277.803 370.742 279.487Z" fill="white"/>
<path fill-rule="evenodd" clip-rule="evenodd" d="M175.079 339.103C172.181 344.995 176.575 348.812 182.699 351.345C194.897 356.389 213.681 359.861 233.025 363.388C255.983 367.573 279.861 371.571 296.297 374.667L292.531 374.387C261.663 371.141 219.367 364.989 188.973 357.151C177.083 354.085 166.101 348.572 171.53 337.015L175.079 339.103Z" fill="white"/>
<path fill-rule="evenodd" clip-rule="evenodd" d="M378.246 362.008L449.039 339.188L376.727 366.853L378.246 362.008Z" fill="white"/>
<path fill-rule="evenodd" clip-rule="evenodd" d="M374.742 308.299C390.619 303.73 446.694 291.785 460.298 292.371C429.941 299.383 403.011 306.271 378.305 314.495L374.742 308.299Z" fill="white"/>
</g>
<path d="M243.901 557.475L240.995 568.897H238.237L236.69 562.897C236.659 562.783 236.617 562.608 236.565 562.374C236.513 562.139 236.458 561.884 236.401 561.608C236.344 561.327 236.292 561.064 236.245 560.819C236.203 560.569 236.174 560.371 236.159 560.225C236.143 560.371 236.112 560.566 236.065 560.811C236.023 561.056 235.974 561.316 235.917 561.592C235.865 561.868 235.812 562.126 235.76 562.366C235.708 562.605 235.667 562.788 235.635 562.913L234.096 568.897H231.346L228.432 557.475H230.815L232.276 563.71C232.318 563.897 232.365 564.121 232.417 564.382C232.474 564.642 232.529 564.915 232.581 565.202C232.638 565.483 232.687 565.757 232.729 566.022C232.776 566.283 232.81 566.509 232.831 566.702C232.857 566.504 232.891 566.275 232.932 566.014C232.974 565.749 233.018 565.48 233.065 565.21C233.117 564.934 233.169 564.678 233.221 564.444C233.273 564.21 233.32 564.02 233.362 563.874L235.026 557.475H237.315L238.979 563.874C239.016 564.014 239.057 564.204 239.104 564.444C239.156 564.678 239.208 564.934 239.26 565.21C239.312 565.486 239.359 565.757 239.401 566.022C239.448 566.283 239.482 566.509 239.503 566.702C239.539 566.441 239.589 566.126 239.651 565.757C239.719 565.382 239.789 565.009 239.862 564.639C239.94 564.27 240.008 563.96 240.065 563.71L241.518 557.475H243.901ZM247.534 556.741V559.217C247.534 559.65 247.518 560.061 247.487 560.452C247.461 560.842 247.44 561.118 247.424 561.28H247.549C247.737 560.978 247.958 560.733 248.214 560.546C248.474 560.358 248.76 560.22 249.073 560.132C249.385 560.043 249.721 559.999 250.081 559.999C250.711 559.999 251.26 560.111 251.729 560.335C252.198 560.553 252.562 560.9 252.823 561.374C253.083 561.842 253.214 562.452 253.214 563.202V568.897H250.831V563.796C250.831 563.171 250.716 562.699 250.487 562.382C250.258 562.064 249.904 561.905 249.424 561.905C248.945 561.905 248.568 562.017 248.292 562.241C248.016 562.46 247.82 562.785 247.706 563.217C247.591 563.645 247.534 564.168 247.534 564.788V568.897H245.151V556.741H247.534ZM259.268 559.999C260.075 559.999 260.771 560.155 261.354 560.467C261.937 560.775 262.388 561.223 262.706 561.811C263.023 562.4 263.182 563.118 263.182 563.967V565.124H257.549C257.575 565.796 257.776 566.324 258.151 566.71C258.531 567.09 259.057 567.28 259.729 567.28C260.286 567.28 260.797 567.223 261.26 567.108C261.724 566.993 262.2 566.822 262.69 566.592V568.436C262.258 568.65 261.805 568.806 261.331 568.905C260.862 569.004 260.292 569.053 259.62 569.053C258.745 569.053 257.969 568.892 257.292 568.569C256.62 568.246 256.091 567.754 255.706 567.092C255.325 566.431 255.135 565.598 255.135 564.592C255.135 563.572 255.307 562.723 255.651 562.046C256 561.363 256.484 560.853 257.104 560.514C257.724 560.171 258.445 559.999 259.268 559.999ZM259.284 561.694C258.82 561.694 258.435 561.842 258.128 562.139C257.825 562.436 257.651 562.902 257.604 563.538H260.948C260.943 563.184 260.878 562.868 260.753 562.592C260.633 562.316 260.45 562.098 260.206 561.936C259.966 561.775 259.659 561.694 259.284 561.694ZM269.995 559.999C270.115 559.999 270.253 560.007 270.409 560.022C270.57 560.033 270.7 560.048 270.799 560.069L270.62 562.303C270.542 562.277 270.43 562.259 270.284 562.249C270.143 562.233 270.021 562.225 269.917 562.225C269.609 562.225 269.31 562.264 269.018 562.342C268.732 562.421 268.474 562.548 268.245 562.725C268.016 562.897 267.833 563.126 267.698 563.413C267.568 563.694 267.503 564.04 267.503 564.452V568.897H265.12V560.163H266.924L267.276 561.632H267.393C267.565 561.335 267.779 561.064 268.034 560.819C268.294 560.569 268.589 560.371 268.917 560.225C269.25 560.074 269.609 559.999 269.995 559.999ZM275.987 559.999C276.794 559.999 277.49 560.155 278.073 560.467C278.656 560.775 279.107 561.223 279.424 561.811C279.742 562.4 279.901 563.118 279.901 563.967V565.124H274.268C274.294 565.796 274.495 566.324 274.87 566.71C275.25 567.09 275.776 567.28 276.448 567.28C277.005 567.28 277.516 567.223 277.979 567.108C278.443 566.993 278.919 566.822 279.409 566.592V568.436C278.977 568.65 278.523 568.806 278.049 568.905C277.581 569.004 277.01 569.053 276.339 569.053C275.464 569.053 274.687 568.892 274.01 568.569C273.339 568.246 272.81 567.754 272.424 567.092C272.044 566.431 271.854 565.598 271.854 564.592C271.854 563.572 272.026 562.723 272.37 562.046C272.719 561.363 273.203 560.853 273.823 560.514C274.443 560.171 275.164 559.999 275.987 559.999ZM276.003 561.694C275.539 561.694 275.154 561.842 274.846 562.139C274.544 562.436 274.37 562.902 274.323 563.538H277.667C277.661 563.184 277.596 562.868 277.471 562.592C277.352 562.316 277.169 562.098 276.924 561.936C276.685 561.775 276.378 561.694 276.003 561.694ZM289.737 562.178L292.12 557.475H294.729L290.94 564.452V568.897H288.534V564.53L284.745 557.475H287.37L289.737 562.178ZM303.917 564.514C303.917 565.243 303.818 565.889 303.62 566.452C303.427 567.014 303.143 567.491 302.768 567.882C302.398 568.267 301.95 568.559 301.424 568.757C300.904 568.954 300.315 569.053 299.659 569.053C299.044 569.053 298.479 568.954 297.964 568.757C297.453 568.559 297.008 568.267 296.628 567.882C296.253 567.491 295.961 567.014 295.753 566.452C295.549 565.889 295.448 565.243 295.448 564.514C295.448 563.546 295.62 562.725 295.964 562.053C296.307 561.382 296.797 560.871 297.432 560.522C298.068 560.173 298.825 559.999 299.706 559.999C300.523 559.999 301.247 560.173 301.878 560.522C302.513 560.871 303.01 561.382 303.37 562.053C303.734 562.725 303.917 563.546 303.917 564.514ZM297.878 564.514C297.878 565.087 297.94 565.569 298.065 565.96C298.19 566.35 298.385 566.645 298.651 566.842C298.917 567.04 299.263 567.139 299.69 567.139C300.112 567.139 300.453 567.04 300.714 566.842C300.979 566.645 301.172 566.35 301.292 565.96C301.417 565.569 301.479 565.087 301.479 564.514C301.479 563.936 301.417 563.457 301.292 563.077C301.172 562.691 300.979 562.402 300.714 562.21C300.448 562.017 300.102 561.921 299.674 561.921C299.044 561.921 298.586 562.137 298.299 562.569C298.018 563.001 297.878 563.65 297.878 564.514ZM313.901 560.163V568.897H312.073L311.753 567.78H311.628C311.44 568.077 311.206 568.319 310.924 568.507C310.643 568.694 310.333 568.832 309.995 568.921C309.656 569.009 309.305 569.053 308.94 569.053C308.315 569.053 307.771 568.944 307.307 568.725C306.844 568.501 306.482 568.155 306.221 567.686C305.966 567.217 305.839 566.608 305.839 565.858V560.163H308.221V565.264C308.221 565.889 308.333 566.361 308.557 566.678C308.781 566.996 309.138 567.155 309.628 567.155C310.112 567.155 310.492 567.046 310.768 566.827C311.044 566.603 311.237 566.277 311.346 565.85C311.461 565.418 311.518 564.892 311.518 564.272V560.163H313.901ZM321.276 559.999C321.396 559.999 321.534 560.007 321.69 560.022C321.852 560.033 321.982 560.048 322.081 560.069L321.901 562.303C321.823 562.277 321.711 562.259 321.565 562.249C321.424 562.233 321.302 562.225 321.198 562.225C320.891 562.225 320.591 562.264 320.299 562.342C320.013 562.421 319.755 562.548 319.526 562.725C319.297 562.897 319.115 563.126 318.979 563.413C318.849 563.694 318.784 564.04 318.784 564.452V568.897H316.401V560.163H318.206L318.557 561.632H318.674C318.846 561.335 319.06 561.064 319.315 560.819C319.575 560.569 319.87 560.371 320.198 560.225C320.531 560.074 320.891 559.999 321.276 559.999ZM326.815 572.257C326.503 572.257 326.229 572.238 325.995 572.202C325.755 572.171 325.552 572.132 325.385 572.085V570.069C325.552 570.105 325.732 570.139 325.924 570.171C326.112 570.207 326.312 570.225 326.526 570.225C326.807 570.225 327.06 570.171 327.284 570.061C327.508 569.957 327.685 569.757 327.815 569.46C327.945 569.163 328.01 568.736 328.01 568.178V557.475H330.432V568.163C330.432 569.142 330.279 569.931 329.971 570.53C329.669 571.134 329.245 571.572 328.698 571.842C328.156 572.118 327.529 572.257 326.815 572.257ZM341.057 564.514C341.057 565.243 340.958 565.889 340.76 566.452C340.568 567.014 340.284 567.491 339.909 567.882C339.539 568.267 339.091 568.559 338.565 568.757C338.044 568.954 337.456 569.053 336.799 569.053C336.185 569.053 335.62 568.954 335.104 568.757C334.594 568.559 334.148 568.267 333.768 567.882C333.393 567.491 333.102 567.014 332.893 566.452C332.69 565.889 332.589 565.243 332.589 564.514C332.589 563.546 332.76 562.725 333.104 562.053C333.448 561.382 333.937 560.871 334.573 560.522C335.208 560.173 335.966 559.999 336.846 559.999C337.664 559.999 338.388 560.173 339.018 560.522C339.654 560.871 340.151 561.382 340.51 562.053C340.875 562.725 341.057 563.546 341.057 564.514ZM335.018 564.514C335.018 565.087 335.081 565.569 335.206 565.96C335.331 566.35 335.526 566.645 335.792 566.842C336.057 567.04 336.404 567.139 336.831 567.139C337.253 567.139 337.594 567.04 337.854 566.842C338.12 566.645 338.312 566.35 338.432 565.96C338.557 565.569 338.62 565.087 338.62 564.514C338.62 563.936 338.557 563.457 338.432 563.077C338.312 562.691 338.12 562.402 337.854 562.21C337.589 562.017 337.242 561.921 336.815 561.921C336.185 561.921 335.727 562.137 335.44 562.569C335.159 563.001 335.018 563.65 335.018 564.514ZM351.042 560.163V568.897H349.214L348.893 567.78H348.768C348.581 568.077 348.346 568.319 348.065 568.507C347.784 568.694 347.474 568.832 347.135 568.921C346.797 569.009 346.445 569.053 346.081 569.053C345.456 569.053 344.911 568.944 344.448 568.725C343.984 568.501 343.622 568.155 343.362 567.686C343.107 567.217 342.979 566.608 342.979 565.858V560.163H345.362V565.264C345.362 565.889 345.474 566.361 345.698 566.678C345.922 566.996 346.279 567.155 346.768 567.155C347.253 567.155 347.633 567.046 347.909 566.827C348.185 566.603 348.378 566.277 348.487 565.85C348.602 565.418 348.659 564.892 348.659 564.272V560.163H351.042ZM358.417 559.999C358.536 559.999 358.674 560.007 358.831 560.022C358.992 560.033 359.122 560.048 359.221 560.069L359.042 562.303C358.964 562.277 358.852 562.259 358.706 562.249C358.565 562.233 358.443 562.225 358.339 562.225C358.031 562.225 357.732 562.264 357.44 562.342C357.154 562.421 356.896 562.548 356.667 562.725C356.437 562.897 356.255 563.126 356.12 563.413C355.99 563.694 355.924 564.04 355.924 564.452V568.897H353.542V560.163H355.346L355.698 561.632H355.815C355.987 561.335 356.2 561.064 356.456 560.819C356.716 560.569 357.01 560.371 357.339 560.225C357.672 560.074 358.031 559.999 358.417 559.999ZM365.768 559.999C366.7 559.999 367.45 560.254 368.018 560.764C368.586 561.27 368.87 562.082 368.87 563.202V568.897H366.487V563.796C366.487 563.171 366.372 562.699 366.143 562.382C365.919 562.064 365.565 561.905 365.081 561.905C364.352 561.905 363.854 562.152 363.589 562.647C363.323 563.142 363.19 563.855 363.19 564.788V568.897H360.807V560.163H362.628L362.948 561.28H363.081C363.268 560.978 363.5 560.733 363.776 560.546C364.057 560.358 364.367 560.22 364.706 560.132C365.049 560.043 365.404 559.999 365.768 559.999ZM374.924 559.999C375.732 559.999 376.427 560.155 377.01 560.467C377.594 560.775 378.044 561.223 378.362 561.811C378.68 562.4 378.839 563.118 378.839 563.967V565.124H373.206C373.232 565.796 373.432 566.324 373.807 566.71C374.187 567.09 374.714 567.28 375.385 567.28C375.943 567.28 376.453 567.223 376.917 567.108C377.38 566.993 377.857 566.822 378.346 566.592V568.436C377.914 568.65 377.461 568.806 376.987 568.905C376.518 569.004 375.948 569.053 375.276 569.053C374.401 569.053 373.625 568.892 372.948 568.569C372.276 568.246 371.747 567.754 371.362 567.092C370.982 566.431 370.792 565.598 370.792 564.592C370.792 563.572 370.964 562.723 371.307 562.046C371.656 561.363 372.141 560.853 372.76 560.514C373.38 560.171 374.102 559.999 374.924 559.999ZM374.94 561.694C374.477 561.694 374.091 561.842 373.784 562.139C373.482 562.436 373.307 562.902 373.26 563.538H376.604C376.599 563.184 376.534 562.868 376.409 562.592C376.289 562.316 376.107 562.098 375.862 561.936C375.622 561.775 375.315 561.694 374.94 561.694ZM379.526 560.163H382.135L383.784 565.077C383.836 565.233 383.88 565.392 383.917 565.553C383.953 565.715 383.984 565.882 384.01 566.053C384.036 566.225 384.057 566.405 384.073 566.592H384.12C384.151 566.311 384.193 566.048 384.245 565.803C384.302 565.559 384.372 565.316 384.456 565.077L386.073 560.163H388.628L384.932 570.014C384.708 570.618 384.417 571.121 384.057 571.522C383.698 571.928 383.284 572.233 382.815 572.436C382.352 572.639 381.841 572.741 381.284 572.741C381.013 572.741 380.779 572.725 380.581 572.694C380.383 572.668 380.214 572.639 380.073 572.608V570.717C380.182 570.743 380.32 570.767 380.487 570.788C380.654 570.809 380.828 570.819 381.01 570.819C381.344 570.819 381.63 570.749 381.87 570.608C382.109 570.467 382.31 570.277 382.471 570.038C382.633 569.803 382.76 569.546 382.854 569.264L382.995 568.835L379.526 560.163ZM394.229 557.475H397.784C399.305 557.475 400.456 557.689 401.237 558.116C402.018 558.543 402.409 559.293 402.409 560.366C402.409 560.798 402.339 561.189 402.198 561.538C402.062 561.887 401.865 562.173 401.604 562.397C401.344 562.621 401.026 562.767 400.651 562.835V562.913C401.031 562.991 401.375 563.126 401.682 563.319C401.99 563.507 402.234 563.783 402.417 564.147C402.604 564.507 402.698 564.986 402.698 565.585C402.698 566.277 402.529 566.871 402.19 567.366C401.852 567.861 401.367 568.241 400.737 568.507C400.112 568.767 399.367 568.897 398.503 568.897H394.229V557.475ZM396.651 561.999H398.057C398.76 561.999 399.247 561.889 399.518 561.671C399.789 561.447 399.924 561.118 399.924 560.686C399.924 560.249 399.763 559.936 399.44 559.749C399.122 559.556 398.617 559.46 397.924 559.46H396.651V561.999ZM396.651 563.921V566.897H398.229C398.958 566.897 399.466 566.757 399.753 566.475C400.039 566.194 400.182 565.816 400.182 565.342C400.182 565.061 400.12 564.814 399.995 564.6C399.87 564.387 399.659 564.22 399.362 564.1C399.07 563.98 398.667 563.921 398.151 563.921H396.651ZM408.393 559.999C409.2 559.999 409.896 560.155 410.479 560.467C411.062 560.775 411.513 561.223 411.831 561.811C412.148 562.4 412.307 563.118 412.307 563.967V565.124H406.674C406.7 565.796 406.901 566.324 407.276 566.71C407.656 567.09 408.182 567.28 408.854 567.28C409.411 567.28 409.922 567.223 410.385 567.108C410.849 566.993 411.325 566.822 411.815 566.592V568.436C411.383 568.65 410.93 568.806 410.456 568.905C409.987 569.004 409.417 569.053 408.745 569.053C407.87 569.053 407.094 568.892 406.417 568.569C405.745 568.246 405.216 567.754 404.831 567.092C404.45 566.431 404.26 565.598 404.26 564.592C404.26 563.572 404.432 562.723 404.776 562.046C405.125 561.363 405.609 560.853 406.229 560.514C406.849 560.171 407.57 559.999 408.393 559.999ZM408.409 561.694C407.945 561.694 407.56 561.842 407.253 562.139C406.95 562.436 406.776 562.902 406.729 563.538H410.073C410.068 563.184 410.003 562.868 409.878 562.592C409.758 562.316 409.575 562.098 409.331 561.936C409.091 561.775 408.784 561.694 408.409 561.694ZM416.799 572.741C415.581 572.741 414.648 572.527 414.003 572.1C413.362 571.678 413.042 571.085 413.042 570.319C413.042 569.793 413.206 569.353 413.534 568.999C413.862 568.645 414.344 568.392 414.979 568.241C414.734 568.137 414.521 567.967 414.339 567.733C414.156 567.493 414.065 567.241 414.065 566.975C414.065 566.642 414.161 566.366 414.354 566.147C414.547 565.923 414.825 565.704 415.19 565.491C414.732 565.293 414.367 564.975 414.096 564.538C413.831 564.1 413.698 563.585 413.698 562.991C413.698 562.355 413.836 561.816 414.112 561.374C414.393 560.926 414.799 560.585 415.331 560.35C415.867 560.116 416.518 559.999 417.284 559.999C417.445 559.999 417.633 560.009 417.846 560.03C418.06 560.051 418.255 560.074 418.432 560.1C418.615 560.126 418.737 560.147 418.799 560.163H421.846V561.374L420.479 561.725C420.604 561.918 420.698 562.124 420.76 562.342C420.823 562.561 420.854 562.793 420.854 563.038C420.854 563.975 420.526 564.707 419.87 565.233C419.219 565.754 418.312 566.014 417.151 566.014C416.875 565.999 416.615 565.978 416.37 565.952C416.25 566.046 416.159 566.145 416.096 566.249C416.034 566.353 416.003 566.462 416.003 566.577C416.003 566.691 416.049 566.788 416.143 566.866C416.242 566.939 416.388 566.996 416.581 567.038C416.779 567.074 417.023 567.092 417.315 567.092H418.799C419.758 567.092 420.487 567.298 420.987 567.71C421.492 568.121 421.745 568.725 421.745 569.522C421.745 570.543 421.318 571.335 420.464 571.897C419.615 572.46 418.393 572.741 416.799 572.741ZM416.901 571.186C417.469 571.186 417.956 571.132 418.362 571.022C418.773 570.918 419.089 570.767 419.307 570.569C419.526 570.376 419.635 570.145 419.635 569.874C419.635 569.655 419.57 569.48 419.44 569.35C419.315 569.225 419.122 569.137 418.862 569.085C418.607 569.033 418.279 569.007 417.878 569.007H416.643C416.352 569.007 416.089 569.053 415.854 569.147C415.625 569.241 415.443 569.371 415.307 569.538C415.172 569.71 415.104 569.908 415.104 570.132C415.104 570.46 415.26 570.717 415.573 570.905C415.891 571.092 416.333 571.186 416.901 571.186ZM417.284 564.561C417.732 564.561 418.06 564.423 418.268 564.147C418.477 563.871 418.581 563.496 418.581 563.022C418.581 562.496 418.471 562.103 418.253 561.842C418.039 561.577 417.716 561.444 417.284 561.444C416.846 561.444 416.518 561.577 416.299 561.842C416.081 562.103 415.971 562.496 415.971 563.022C415.971 563.496 416.078 563.871 416.292 564.147C416.51 564.423 416.841 564.561 417.284 564.561ZM425.674 560.163V568.897H423.292V560.163H425.674ZM424.487 556.741C424.841 556.741 425.146 556.824 425.401 556.991C425.656 557.152 425.784 557.457 425.784 557.905C425.784 558.348 425.656 558.655 425.401 558.827C425.146 558.993 424.841 559.077 424.487 559.077C424.128 559.077 423.82 558.993 423.565 558.827C423.315 558.655 423.19 558.348 423.19 557.905C423.19 557.457 423.315 557.152 423.565 556.991C423.82 556.824 424.128 556.741 424.487 556.741ZM433.143 559.999C434.075 559.999 434.825 560.254 435.393 560.764C435.961 561.27 436.245 562.082 436.245 563.202V568.897H433.862V563.796C433.862 563.171 433.747 562.699 433.518 562.382C433.294 562.064 432.94 561.905 432.456 561.905C431.727 561.905 431.229 562.152 430.964 562.647C430.698 563.142 430.565 563.855 430.565 564.788V568.897H428.182V560.163H430.003L430.323 561.28H430.456C430.643 560.978 430.875 560.733 431.151 560.546C431.432 560.358 431.742 560.22 432.081 560.132C432.424 560.043 432.779 559.999 433.143 559.999ZM444.792 566.303C444.792 566.897 444.651 567.4 444.37 567.811C444.094 568.217 443.68 568.527 443.128 568.741C442.575 568.949 441.888 569.053 441.065 569.053C440.456 569.053 439.932 569.014 439.495 568.936C439.062 568.858 438.625 568.728 438.182 568.546V566.577C438.656 566.79 439.164 566.967 439.706 567.108C440.253 567.243 440.732 567.311 441.143 567.311C441.607 567.311 441.937 567.243 442.135 567.108C442.339 566.967 442.44 566.785 442.44 566.561C442.44 566.415 442.398 566.285 442.315 566.171C442.237 566.051 442.065 565.918 441.799 565.772C441.534 565.621 441.117 565.426 440.549 565.186C440.003 564.957 439.552 564.725 439.198 564.491C438.849 564.257 438.589 563.98 438.417 563.663C438.25 563.34 438.167 562.931 438.167 562.436C438.167 561.629 438.479 561.022 439.104 560.616C439.734 560.204 440.575 559.999 441.628 559.999C442.169 559.999 442.685 560.053 443.174 560.163C443.669 560.272 444.177 560.447 444.698 560.686L443.979 562.405C443.547 562.217 443.138 562.064 442.753 561.944C442.372 561.824 441.984 561.764 441.589 561.764C441.24 561.764 440.977 561.811 440.799 561.905C440.622 561.999 440.534 562.142 440.534 562.335C440.534 562.475 440.578 562.6 440.667 562.71C440.76 562.819 440.937 562.941 441.198 563.077C441.464 563.207 441.852 563.376 442.362 563.585C442.857 563.788 443.286 564.001 443.651 564.225C444.016 564.444 444.297 564.717 444.495 565.046C444.693 565.368 444.792 565.788 444.792 566.303Z" fill="black"/>
<path d="M196.029 528.64C192.615 528.64 190.013 527.68 188.221 525.76C186.429 523.797 185.533 521.003 185.533 517.376V493.824C185.533 490.197 186.429 487.424 188.221 485.504C190.013 483.541 192.615 482.56 196.029 482.56C199.442 482.56 202.045 483.541 203.837 485.504C205.629 487.424 206.525 490.197 206.525 493.824V497.664H199.869V493.376C199.869 490.432 198.653 488.96 196.221 488.96C193.789 488.96 192.573 490.432 192.573 493.376V517.888C192.573 520.789 193.789 522.24 196.221 522.24C198.653 522.24 199.869 520.789 199.869 517.888V509.12H196.349V502.72H206.525V517.376C206.525 521.003 205.629 523.797 203.837 525.76C202.045 527.68 199.442 528.64 196.029 528.64ZM211.045 483.2H221.477C225.103 483.2 227.749 484.053 229.413 485.76C231.077 487.424 231.909 490.005 231.909 493.504V496.256C231.909 500.907 230.373 503.851 227.301 505.088V505.216C229.007 505.728 230.202 506.773 230.885 508.352C231.61 509.931 231.973 512.043 231.973 514.688V522.56C231.973 523.84 232.015 524.885 232.101 525.696C232.186 526.464 232.399 527.232 232.741 528H225.573C225.317 527.275 225.146 526.592 225.061 525.952C224.975 525.312 224.933 524.16 224.933 522.496V514.304C224.933 512.256 224.591 510.827 223.909 510.016C223.269 509.205 222.138 508.8 220.517 508.8H218.085V528H211.045V483.2ZM220.645 502.4C222.053 502.4 223.098 502.037 223.781 501.312C224.506 500.587 224.869 499.371 224.869 497.664V494.208C224.869 492.587 224.57 491.413 223.973 490.688C223.418 489.963 222.522 489.6 221.285 489.6H218.085V502.4H220.645ZM242.297 483.2H251.833L259.129 528H252.089L250.809 519.104V519.232H242.809L241.529 528H235.001L242.297 483.2ZM249.977 513.152L246.841 491.008H246.713L243.641 513.152H249.977ZM262.545 483.2H271.377L278.225 510.016H278.353V483.2H284.625V528H277.393L268.945 495.296H268.817V528H262.545V483.2ZM309.259 528.64C305.846 528.64 303.264 527.68 301.515 525.76C299.766 523.797 298.891 521.003 298.891 517.376V514.816H305.547V517.888C305.547 520.789 306.763 522.24 309.195 522.24C310.39 522.24 311.286 521.899 311.883 521.216C312.523 520.491 312.843 519.339 312.843 517.76C312.843 515.883 312.416 514.24 311.563 512.832C310.71 511.381 309.131 509.653 306.827 507.648C303.926 505.088 301.899 502.784 300.747 500.736C299.595 498.645 299.019 496.299 299.019 493.696C299.019 490.155 299.915 487.424 301.707 485.504C303.499 483.541 306.102 482.56 309.515 482.56C312.886 482.56 315.424 483.541 317.131 485.504C318.88 487.424 319.755 490.197 319.755 493.824V495.68H313.099V493.376C313.099 491.84 312.8 490.731 312.203 490.048C311.606 489.323 310.731 488.96 309.579 488.96C307.232 488.96 306.059 490.389 306.059 493.248C306.059 494.869 306.486 496.384 307.339 497.792C308.235 499.2 309.835 500.907 312.139 502.912C315.083 505.472 317.11 507.797 318.219 509.888C319.328 511.979 319.883 514.432 319.883 517.248C319.883 520.917 318.966 523.733 317.131 525.696C315.339 527.659 312.715 528.64 309.259 528.64ZM334.096 528.64C330.64 528.64 327.994 527.659 326.16 525.696C324.325 523.733 323.408 520.96 323.408 517.376V493.824C323.408 490.24 324.325 487.467 326.16 485.504C327.994 483.541 330.64 482.56 334.096 482.56C337.552 482.56 340.197 483.541 342.032 485.504C343.866 487.467 344.784 490.24 344.784 493.824V517.376C344.784 520.96 343.866 523.733 342.032 525.696C340.197 527.659 337.552 528.64 334.096 528.64ZM334.096 522.24C336.528 522.24 337.744 520.768 337.744 517.824V493.376C337.744 490.432 336.528 488.96 334.096 488.96C331.664 488.96 330.448 490.432 330.448 493.376V517.824C330.448 520.768 331.664 522.24 334.096 522.24ZM349.545 483.2H358.377L365.225 510.016H365.353V483.2H371.625V528H364.393L355.945 495.296H355.817V528H349.545V483.2ZM376.857 483.2H387.289C390.916 483.2 393.561 484.053 395.225 485.76C396.889 487.424 397.721 490.005 397.721 493.504V496.256C397.721 500.907 396.185 503.851 393.113 505.088V505.216C394.82 505.728 396.014 506.773 396.697 508.352C397.422 509.931 397.785 512.043 397.785 514.688V522.56C397.785 523.84 397.828 524.885 397.913 525.696C397.998 526.464 398.212 527.232 398.553 528H391.385C391.129 527.275 390.958 526.592 390.873 525.952C390.788 525.312 390.745 524.16 390.745 522.496V514.304C390.745 512.256 390.404 510.827 389.721 510.016C389.081 509.205 387.95 508.8 386.329 508.8H383.897V528H376.857V483.2ZM386.457 502.4C387.865 502.4 388.91 502.037 389.593 501.312C390.318 500.587 390.681 499.371 390.681 497.664V494.208C390.681 492.587 390.382 491.413 389.785 490.688C389.23 489.963 388.334 489.6 387.097 489.6H383.897V502.4H386.457ZM402.67 483.2H409.71V528H402.67V483.2ZM424.134 528.64C420.721 528.64 418.139 527.68 416.39 525.76C414.641 523.797 413.766 521.003 413.766 517.376V514.816H420.422V517.888C420.422 520.789 421.638 522.24 424.07 522.24C425.265 522.24 426.161 521.899 426.758 521.216C427.398 520.491 427.718 519.339 427.718 517.76C427.718 515.883 427.291 514.24 426.438 512.832C425.585 511.381 424.006 509.653 421.702 507.648C418.801 505.088 416.774 502.784 415.622 500.736C414.47 498.645 413.894 496.299 413.894 493.696C413.894 490.155 414.79 487.424 416.582 485.504C418.374 483.541 420.977 482.56 424.39 482.56C427.761 482.56 430.299 483.541 432.006 485.504C433.755 487.424 434.63 490.197 434.63 493.824V495.68H427.974V493.376C427.974 491.84 427.675 490.731 427.078 490.048C426.481 489.323 425.606 488.96 424.454 488.96C422.107 488.96 420.934 490.389 420.934 493.248C420.934 494.869 421.361 496.384 422.214 497.792C423.11 499.2 424.71 500.907 427.014 502.912C429.958 505.472 431.985 507.797 433.094 509.888C434.203 511.979 434.758 514.432 434.758 517.248C434.758 520.917 433.841 523.733 432.006 525.696C430.214 527.659 427.59 528.64 424.134 528.64ZM444.047 483.2H453.583L460.879 528H453.839L452.559 519.104V519.232H444.559L443.279 528H436.751L444.047 483.2ZM451.727 513.152L448.591 491.008H448.463L445.391 513.152H451.727Z" fill="white"/>
</g>
<defs>
<clipPath id="clip0_1_2">
<rect width="666.667" height="666.667" fill="white"/>
</clipPath>
</defs>
</svg>
